<svg xmlns="http://www.w3.org/2000/svg" xmlns:xlink="http://www.w3.org/1999/xlink" version="1.1" data-diagram-type="ACTIVITY" style="width:561px;height:1018px;background:#FFFFFF;" width="561px" height="1018px" viewBox="0 0 561 1018" zoomAndPan="magnify" preserveAspectRatio="none" contentStyleType="text/css"><?plantuml 1.2026.8?><defs/><g font-family="sans-serif" lengthAdjust="spacing"><g class="title" data-source-line="1"><text x="64.213" y="32.995" fill="#000" font-size="14" textLength="430.821" font-weight="700">Process view — Activity diagram: reddit_daily DAG run</text></g><ellipse cx="163.286" cy="62.297" rx="10" ry="10" fill="#222" style="stroke:#222;stroke-width:1;"/><rect x="37.836" y="92.297" width="250.9" height="47.938" fill="#F1F1F1" style="stroke:#181818;stroke-width:0.5;" rx="12.5" ry="12.5"/><text x="47.836" y="113.436" fill="#000" font-size="12" textLength="172.594">Scheduler fires at 02:00 UTC</text><text x="47.836" y="127.404" fill="#000" font-size="12" textLength="230.9">(data interval = previous UTC day, ds)</text><rect x="69.901" y="208.637" width="186.77" height="33.969" fill="#F1F1F1" style="stroke:#181818;stroke-width:0.5;" rx="12.5" ry="12.5"/><text x="79.901" y="229.775" fill="#000" font-size="12" textLength="166.77">Wait (max_active_runs = 1)</text><polygon points="67.987,160.234,258.585,160.234,270.585,172.234,258.585,184.234,67.987,184.234,55.987,172.234,67.987,160.234" fill="#F1F1F1" style="stroke:#181818;stroke-width:0.5;stroke-linejoin:miter;stroke-miterlimit:10;"/><text x="167.286" y="194.445" fill="#000" font-size="11" textLength="19.008">yes</text><text x="67.987" y="176.042" fill="#000" font-size="11" textLength="190.599">Another run of reddit_daily active?</text><polygon points="163.286,262.605,175.286,274.605,163.286,286.605,151.286,274.605,163.286,262.605" fill="#F1F1F1" style="stroke:#181818;stroke-width:0.5;stroke-linejoin:miter;stroke-miterlimit:10;"/><rect x="43.51" y="296.605" width="263.553" height="313.571" fill="none" style="stroke:#000;stroke-width:1.5;"/><path d="M147.948,296.605 L147.948,305.902 L137.948,315.902 L43.51,315.902" style="stroke:#000;stroke-width:1.5;" fill="none"/><text x="46.51" y="310.601" fill="#000" font-size="14" textLength="94.438">extract_posts</text><rect x="53.51" y="376.902" width="219.553" height="33.969" fill="#F1F1F1" style="stroke:#181818;stroke-width:0.5;" rx="12.5" ry="12.5"/><text x="63.51" y="398.041" fill="#000" font-size="12" textLength="199.553">GET Arctic Shift page (100 posts)</text><polygon points="163.286,332.902,175.286,344.902,163.286,356.902,151.286,344.902,163.286,332.902" fill="#F1F1F1" style="stroke:#181818;stroke-width:0.5;stroke-linejoin:miter;stroke-miterlimit:10;"/><polygon points="136.404,430.871,190.168,430.871,202.168,442.871,190.168,454.871,136.404,454.871,124.404,442.871,136.404,430.871" fill="#F1F1F1" style="stroke:#181818;stroke-width:0.5;stroke-linejoin:miter;stroke-miterlimit:10;"/><text x="136.404" y="446.679" fill="#000" font-size="11" textLength="53.765">page full?</text><text x="202.168" y="440.277" fill="#000" font-size="11" textLength="19.008">yes</text><rect x="98.53" y="496.27" width="129.512" height="33.969" fill="#F1F1F1" style="stroke:#181818;stroke-width:0.5;" rx="12.5" ry="12.5"/><text x="108.53" y="517.409" fill="#000" font-size="12" textLength="109.512">Drop duplicate ids</text><rect x="59.888" y="550.239" width="206.797" height="47.938" fill="#F1F1F1" style="stroke:#181818;stroke-width:0.5;" rx="12.5" ry="12.5"/><text x="69.888" y="571.377" fill="#000" font-size="12" textLength="186.797">PUT posts/&lt;ds>.json to RustFS</text><text x="69.888" y="585.346" fill="#000" font-size="12" textLength="164.895">(--force overwrites the day)</text><rect x="16" y="620.176" width="294.572" height="150.203" fill="none" style="stroke:#000;stroke-width:1.5;"/><path d="M136.421,620.176 L136.421,629.473 L126.421,639.473 L16,639.473" style="stroke:#000;stroke-width:1.5;" fill="none"/><text x="19" y="634.171" fill="#000" font-size="14" textLength="110.421">load_clickhouse</text><rect x="26" y="656.473" width="274.572" height="33.969" fill="#F1F1F1" style="stroke:#181818;stroke-width:0.5;" rx="12.5" ry="12.5"/><text x="36" y="677.612" fill="#000" font-size="12" textLength="254.572">ClickHouse reads posts/&lt;ds>.json via s3()</text><rect x="46.063" y="710.442" width="234.447" height="47.938" fill="#F1F1F1" style="stroke:#181818;stroke-width:0.5;" rx="12.5" ry="12.5"/><text x="56.063" y="731.581" fill="#000" font-size="12" textLength="145.57">INSERT into reddit.posts</text><text x="56.063" y="745.549" fill="#000" font-size="12" textLength="214.447">(ReplacingMergeTree dedups by id)</text><rect x="34.489" y="780.379" width="257.594" height="136.234" fill="none" style="stroke:#000;stroke-width:1.5;"/><path d="M109.178,780.379 L109.178,789.676 L99.178,799.676 L34.489,799.676" style="stroke:#000;stroke-width:1.5;" fill="none"/><text x="37.489" y="794.375" fill="#000" font-size="14" textLength="64.688">dbt_build</text><rect x="44.489" y="816.676" width="237.594" height="33.969" fill="#F1F1F1" style="stroke:#181818;stroke-width:0.5;" rx="12.5" ry="12.5"/><text x="54.489" y="837.815" fill="#000" font-size="12" textLength="217.594">Build stg_reddit__posts, facts, marts</text><rect x="70.414" y="870.645" width="185.744" height="33.969" fill="#F1F1F1" style="stroke:#181818;stroke-width:0.5;" rx="12.5" ry="12.5"/><text x="80.414" y="891.784" fill="#000" font-size="12" textLength="165.744">Run data and singular tests</text><path d="M194.286,926.614 L194.286,957.879 L174.286,961.879 L194.286,965.879 L194.286,997.145 A0,0 0 0 0 194.286,997.145 L540.248,997.145 A0,0 0 0 0 540.248,997.145 L540.248,936.614 L530.248,926.614 L194.286,926.614 A0,0 0 0 0 194.286,926.614" style="stroke:#181818;stroke-width:0.5;" fill="#FEFFDD"/><path d="M530.248,926.614 L530.248,936.614 L540.248,936.614 L530.248,926.614" style="stroke:#181818;stroke-width:0.5;" fill="#FEFFDD"/><text x="200.286" y="943.681" fill="#000" font-size="13" textLength="184.926">Every task retries on failure:</text><text x="200.286" y="958.813" fill="#000" font-size="13" textLength="233.568">up to 3 retries, exponential backoff,</text><text x="200.286" y="973.946" fill="#000" font-size="13" textLength="245.781">max 10 min wait. A task that still fails</text><text x="200.286" y="989.079" fill="#000" font-size="13" textLength="324.962">marks the run failed and skips downstream tasks.</text><ellipse cx="163.286" cy="961.879" rx="11" ry="11" fill="none" style="stroke:#222;stroke-width:1;"/><ellipse cx="163.286" cy="961.879" rx="6" ry="6" fill="#222" style="stroke:#222;stroke-width:1;"/><line x1="163.286" y1="72.297" x2="163.286" y2="92.297" style="stroke:#181818;stroke-width:1;"/><polygon points="159.286,82.297,163.286,92.297,167.286,82.297,163.286,86.297" fill="#181818" style="stroke:#181818;stroke-width:1;stroke-linejoin:miter;stroke-miterlimit:10;"/><line x1="163.286" y1="184.234" x2="163.286" y2="208.637" style="stroke:#181818;stroke-width:1;"/><polygon points="159.286,198.637,163.286,208.637,167.286,198.637,163.286,202.637" fill="#181818" style="stroke:#181818;stroke-width:1;stroke-linejoin:miter;stroke-miterlimit:10;"/><line x1="270.585" y1="172.234" x2="282.585" y2="172.234" style="stroke:#181818;stroke-width:1;"/><polygon points="278.585,215.621,282.585,225.621,286.585,215.621,282.585,219.621" fill="#181818" style="stroke:#181818;stroke-width:1;stroke-linejoin:miter;stroke-miterlimit:10;"/><line x1="282.585" y1="172.234" x2="282.585" y2="274.605" style="stroke:#181818;stroke-width:1;"/><line x1="282.585" y1="274.605" x2="175.286" y2="274.605" style="stroke:#181818;stroke-width:1;"/><polygon points="185.286,270.605,175.286,274.605,185.286,278.605,181.286,274.605" fill="#181818" style="stroke:#181818;stroke-width:1;stroke-linejoin:miter;stroke-miterlimit:10;"/><line x1="163.286" y1="242.605" x2="163.286" y2="262.605" style="stroke:#181818;stroke-width:1;"/><polygon points="159.286,252.605,163.286,262.605,167.286,252.605,163.286,256.605" fill="#181818" style="stroke:#181818;stroke-width:1;stroke-linejoin:miter;stroke-miterlimit:10;"/><line x1="163.286" y1="140.234" x2="163.286" y2="160.234" style="stroke:#181818;stroke-width:1;"/><polygon points="159.286,150.234,163.286,160.234,167.286,150.234,163.286,154.234" fill="#181818" style="stroke:#181818;stroke-width:1;stroke-linejoin:miter;stroke-miterlimit:10;"/><line x1="163.286" y1="356.902" x2="163.286" y2="376.902" style="stroke:#181818;stroke-width:1;"/><polygon points="159.286,366.902,163.286,376.902,167.286,366.902,163.286,370.902" fill="#181818" style="stroke:#181818;stroke-width:1;stroke-linejoin:miter;stroke-miterlimit:10;"/><line x1="202.168" y1="442.871" x2="285.063" y2="442.871" style="stroke:#181818;stroke-width:1;"/><polygon points="281.063,403.887,285.063,393.887,289.063,403.887,285.063,399.887" fill="#181818" style="stroke:#181818;stroke-width:1;stroke-linejoin:miter;stroke-miterlimit:10;"/><line x1="285.063" y1="344.902" x2="285.063" y2="442.871" style="stroke:#181818;stroke-width:1;"/><line x1="285.063" y1="344.902" x2="175.286" y2="344.902" style="stroke:#181818;stroke-width:1;"/><polygon points="185.286,340.902,175.286,344.902,185.286,348.902,181.286,344.902" fill="#181818" style="stroke:#181818;stroke-width:1;stroke-linejoin:miter;stroke-miterlimit:10;"/><line x1="163.286" y1="410.871" x2="163.286" y2="430.871" style="stroke:#181818;stroke-width:1;"/><polygon points="159.286,420.871,163.286,430.871,167.286,420.871,163.286,424.871" fill="#181818" style="stroke:#181818;stroke-width:1;stroke-linejoin:miter;stroke-miterlimit:10;"/><line x1="163.286" y1="454.871" x2="163.286" y2="496.27" style="stroke:#181818;stroke-width:1;"/><polygon points="159.286,486.27,163.286,496.27,167.286,486.27,163.286,490.27" fill="#181818" style="stroke:#181818;stroke-width:1;stroke-linejoin:miter;stroke-miterlimit:10;"/><text x="167.286" y="476.176" fill="#000" font-size="11" textLength="13.702">no</text><line x1="163.286" y1="530.239" x2="163.286" y2="550.239" style="stroke:#181818;stroke-width:1;"/><polygon points="159.286,540.239,163.286,550.239,167.286,540.239,163.286,544.239" fill="#181818" style="stroke:#181818;stroke-width:1;stroke-linejoin:miter;stroke-miterlimit:10;"/><line x1="163.286" y1="286.605" x2="163.286" y2="332.902" style="stroke:#181818;stroke-width:1;"/><polygon points="159.286,322.902,163.286,332.902,167.286,322.902,163.286,326.902" fill="#181818" style="stroke:#181818;stroke-width:1;stroke-linejoin:miter;stroke-miterlimit:10;"/><line x1="163.286" y1="690.442" x2="163.286" y2="710.442" style="stroke:#181818;stroke-width:1;"/><polygon points="159.286,700.442,163.286,710.442,167.286,700.442,163.286,704.442" fill="#181818" style="stroke:#181818;stroke-width:1;stroke-linejoin:miter;stroke-miterlimit:10;"/><line x1="163.286" y1="598.176" x2="163.286" y2="656.473" style="stroke:#181818;stroke-width:1;"/><polygon points="159.286,646.473,163.286,656.473,167.286,646.473,163.286,650.473" fill="#181818" style="stroke:#181818;stroke-width:1;stroke-linejoin:miter;stroke-miterlimit:10;"/><line x1="163.286" y1="850.645" x2="163.286" y2="870.645" style="stroke:#181818;stroke-width:1;"/><polygon points="159.286,860.645,163.286,870.645,167.286,860.645,163.286,864.645" fill="#181818" style="stroke:#181818;stroke-width:1;stroke-linejoin:miter;stroke-miterlimit:10;"/><line x1="163.286" y1="758.379" x2="163.286" y2="816.676" style="stroke:#181818;stroke-width:1;"/><polygon points="159.286,806.676,163.286,816.676,167.286,806.676,163.286,810.676" fill="#181818" style="stroke:#181818;stroke-width:1;stroke-linejoin:miter;stroke-miterlimit:10;"/><line x1="163.286" y1="904.614" x2="163.286" y2="950.879" style="stroke:#181818;stroke-width:1;"/><polygon points="159.286,940.879,163.286,950.879,167.286,940.879,163.286,944.879" fill="#181818" style="stroke:#181818;stroke-width:1;stroke-linejoin:miter;stroke-miterlimit:10;"/><?plantuml-src PLFBRjim4BphAnOvAO3ZEirDRLEuYPlsq2Am7VHIGA35bRKrJGhSbHye0kGZ-eNzaYubf-ZZ98ASdPsT7Gc9GxYFeK9cs17kuUVJ3vXMGZkI8rWowsYs1KIqbgIqXjmHRgTt43kVyOPyQ_GTk34sxCcleJQECSjOJ9IiM5GDsivXX9eYCXY1oSjYCe67vSrNdriZ1iWBnfrny0RQY3iA7QTdiEOu0ildhpAg8P_w88toQ5y8zTzwJ9ABRyz14Hxo8_9v1b1yCIIGRysX702brh9skLHAz9RgJCKB2GKFPtYGgB2o3Iny1j-L86ABHlIWN7Up9KoZqbImQAWMQCqQ8R_KKVeAfNmkW7r3QchU8-hEEHL6_5lMnRKF2LpSnj22xLf7bH44ijnVtpyi1yeNhorVZx-ngfC0yuxb_K8zkxYeGwmGmWxZFfAegpfsSairFFuvaWl6bfNIRnhr58UXYfjqyI5Tg5vZ-RzcEpB0Lta_KV7nys8sNwOTXPFdunwlGkROEbFfpZzXNECoeehGPRSCgwDEywyQkv9orP6p9ntlqXbOrkLfbuFr8qrGbJvRBHqScUlA-wGOhmNQi7CcWWwUtXyrQg7DD1qw3wsRjA-PMdC4CRnHpH99BL85jMQbYrWee6kJfLVFhoF0GniyUY6DuSfKcr3N8yLfTk1o0bloiDSmZM4wi4gZQsOXvtfMxg5nCsmY9JJTeXq4RqWjqR_3iwZXsvw1noc1a5J_0W00?></g></svg>