<svg xmlns="http://www.w3.org/2000/svg" xmlns:xlink="http://www.w3.org/1999/xlink" version="1.1" data-diagram-type="CLASS" style="width:1615px;height:348px;background:#FFFFFF;" width="1615px" height="348px" viewBox="0 0 1615 348" zoomAndPan="magnify" preserveAspectRatio="none" contentStyleType="text/css"><?plantuml 1.2026.8?><defs/><g font-family="sans-serif" lengthAdjust="spacing"><g class="title" data-source-line="1"><text x="587.445" y="22.995" fill="#000" font-size="14" textLength="433.275" font-weight="700">Process view — Communication diagram: one daily run</text></g><g class="entity" data-qualified-name="scheduler" id="ent0001" data-source-line="5"><rect x="7" y="190.297" width="141.313" height="36.297" fill="#F1F1F1" style="stroke:#181818;stroke-width:0.5;" rx="2.5" ry="2.5"/><text x="14" y="205.292" fill="#000" font-size="14" textLength="127.313">:Airflow Scheduler</text><line x1="8" y1="210.594" x2="147.313" y2="210.594" style="stroke:#181818;stroke-width:0.5;"/></g><g class="entity" data-qualified-name="extract" id="ent0002" data-source-line="6"><rect x="398.89" y="83.297" width="210.171" height="36.297" fill="#F1F1F1" style="stroke:#181818;stroke-width:0.5;" rx="2.5" ry="2.5"/><text x="405.89" y="98.292" fill="#000" font-size="14" textLength="196.171">extract_posts:BashOperator</text><line x1="399.89" y1="103.594" x2="608.061" y2="103.594" style="stroke:#181818;stroke-width:0.5;"/></g><g class="entity" data-qualified-name="load" id="ent0003" data-source-line="7"><rect x="390.9" y="154.297" width="226.153" height="36.297" fill="#F1F1F1" style="stroke:#181818;stroke-width:0.5;" rx="2.5" ry="2.5"/><text x="397.9" y="169.292" fill="#000" font-size="14" textLength="212.153">load_clickhouse:BashOperator</text><line x1="391.9" y1="174.594" x2="616.053" y2="174.594" style="stroke:#181818;stroke-width:0.5;"/></g><g class="entity" data-qualified-name="fresh" id="ent0004" data-source-line="8"><rect x="370.31" y="225.297" width="267.333" height="36.297" fill="#F1F1F1" style="stroke:#181818;stroke-width:0.5;" rx="2.5" ry="2.5"/><text x="377.31" y="240.292" fill="#000" font-size="14" textLength="253.333">dbt_source_freshness:BashOperator</text><line x1="371.31" y1="245.594" x2="636.643" y2="245.594" style="stroke:#181818;stroke-width:0.5;"/></g><g class="entity" data-qualified-name="dbt" id="ent0005" data-source-line="9"><rect x="413.77" y="297.297" width="180.421" height="36.297" fill="#F1F1F1" style="stroke:#181818;stroke-width:0.5;" rx="2.5" ry="2.5"/><text x="420.77" y="312.292" fill="#000" font-size="14" textLength="166.421">dbt_build:BashOperator</text><line x1="414.77" y1="317.594" x2="593.191" y2="317.594" style="stroke:#181818;stroke-width:0.5;"/></g><g class="entity" data-qualified-name="arctic" id="ent0006" data-source-line="10"><rect x="1035.68" y="44.297" width="121.939" height="36.297" fill="#F1F1F1" style="stroke:#181818;stroke-width:0.5;" rx="2.5" ry="2.5"/><text x="1042.68" y="59.292" fill="#000" font-size="14" textLength="107.939">:Arctic Shift API</text><line x1="1036.68" y1="64.594" x2="1156.619" y2="64.594" style="stroke:#181818;stroke-width:0.5;"/></g><g class="entity" data-qualified-name="bucket" id="ent0007" data-source-line="11"><rect x="1409.65" y="158.297" width="191.516" height="36.297" fill="#F1F1F1" style="stroke:#181818;stroke-width:0.5;" rx="2.5" ry="2.5"/><text x="1416.65" y="173.292" fill="#000" font-size="14" textLength="177.516">reddit-raw:RustFS bucket</text><line x1="1410.65" y1="178.594" x2="1600.166" y2="178.594" style="stroke:#181818;stroke-width:0.5;"/></g><g class="entity" data-qualified-name="ch" id="ent0008" data-source-line="12"><rect x="1048.67" y="206.297" width="95.949" height="36.297" fill="#F1F1F1" style="stroke:#181818;stroke-width:0.5;" rx="2.5" ry="2.5"/><text x="1055.67" y="221.292" fill="#000" font-size="14" textLength="81.949">:ClickHouse</text><line x1="1049.67" y1="226.594" x2="1143.619" y2="226.594" style="stroke:#181818;stroke-width:0.5;"/></g><!--link scheduler to extract--><g class="link" data-entity-1="ent0001" data-entity-2="ent0002" id="lnk9" data-source-line="14" data-link-type="dependency"><path d="M113.32,189.877 C132.11,180.477 155.98,169.577 178.31,162.447 C250.29,139.467 329.235,124.714 393.705,115.104" style="stroke:#181818;stroke-width:1;" fill="none" id="scheduler-to-extract" codeLine="14"/><polygon points="398.65,114.367,389.159,111.737,393.705,115.104,390.338,119.65,398.65,114.367" fill="#181818" style="stroke:#181818;stroke-width:1;stroke-linejoin:miter;stroke-miterlimit:10;"/><text x="227.81" y="120.734" fill="#000" font-size="13" textLength="63.775">1: run(ds)</text></g><!--link extract to arctic--><g class="link" data-entity-1="ent0002" data-entity-2="ent0006" id="lnk10" data-source-line="15" data-link-type="dependency"><path d="M609.56,94.547 C733.32,86.377 930.201,73.377 1030.361,66.757" style="stroke:#181818;stroke-width:1;" fill="none" id="extract-to-arctic" codeLine="15"/><polygon points="1035.35,66.427,1026.106,63.029,1030.361,66.757,1026.633,71.012,1035.35,66.427" fill="#181818" style="stroke:#181818;stroke-width:1;stroke-linejoin:miter;stroke-miterlimit:10;"/><text x="717.15" y="66.944" fill="#000" font-size="13" textLength="205.105">1.1*: searchPosts(after, before)</text></g><!--link extract to bucket--><g class="link" data-entity-1="ent0002" data-entity-2="ent0007" id="lnk11" data-source-line="16" data-link-type="dependency"><path d="M609.11,109.267 C804.09,123.897 1216.504,154.843 1404.354,168.943" style="stroke:#181818;stroke-width:1;" fill="none" id="extract-to-bucket" codeLine="16"/><polygon points="1409.34,169.317,1400.665,164.654,1404.354,168.943,1400.066,172.632,1409.34,169.317" fill="#181818" style="stroke:#181818;stroke-width:1;stroke-linejoin:miter;stroke-miterlimit:10;"/><text x="1002.65" y="135.014" fill="#000" font-size="13" textLength="188.221">1.2: putObject(posts/ds.json)</text></g><!--link scheduler to load--><g class="link" data-entity-1="ent0001" data-entity-2="ent0003" id="lnk12" data-source-line="17" data-link-type="dependency"><path d="M148.72,202.507 C214.4,196.937 308.708,188.929 385.478,182.419" style="stroke:#181818;stroke-width:1;" fill="none" id="scheduler-to-load" codeLine="17"/><polygon points="390.46,181.997,381.154,178.772,385.478,182.419,381.83,186.743,390.46,181.997" fill="#181818" style="stroke:#181818;stroke-width:1;stroke-linejoin:miter;stroke-miterlimit:10;"/><text x="179.31" y="183.294" fill="#000" font-size="13" textLength="160.259">2: run(ds) [1 succeeded]</text></g><!--link load to ch--><g class="link" data-entity-1="ent0003" data-entity-2="ent0008" id="lnk13" data-source-line="18" data-link-type="dependency"><path d="M617.25,181.167 C711.81,188.667 850.64,200.047 971.65,211.447 C996.97,213.837 1020.199,216.233 1043.299,218.713" style="stroke:#181818;stroke-width:1;" fill="none" id="load-to-ch" codeLine="18"/><polygon points="1048.27,219.247,1039.748,214.309,1043.299,218.713,1038.894,222.263,1048.27,219.247" fill="#181818" style="stroke:#181818;stroke-width:1;stroke-linejoin:miter;stroke-miterlimit:10;"/><text x="668.65" y="181.584" fill="#000" font-size="13" textLength="302.764">2.1: INSERT … SELECT FROM s3(posts/ds.json)</text></g><!--link ch to bucket--><g class="link" data-entity-1="ent0008" data-entity-2="ent0007" id="lnk14" data-source-line="19" data-link-type="dependency"><path d="M1145.1,218.847 C1209.65,211.227 1321.594,198.023 1404.514,188.233" style="stroke:#181818;stroke-width:1;" fill="none" id="ch-to-bucket" codeLine="19"/><polygon points="1409.48,187.647,1400.073,184.73,1404.514,188.233,1401.011,192.675,1409.48,187.647" fill="#181818" style="stroke:#181818;stroke-width:1;stroke-linejoin:miter;stroke-miterlimit:10;"/><text x="1222.65" y="188.044" fill="#000" font-size="13" textLength="156.914">2.1.1: GET posts/ds.json</text></g><!--link scheduler to fresh--><g class="link" data-entity-1="ent0001" data-entity-2="ent0004" id="lnk15" data-source-line="20" data-link-type="dependency"><path d="M135.3,227.027 C149.22,230.847 164.18,234.347 178.31,236.447 C240.91,245.767 306.03,248.269 365.05,248.129" style="stroke:#181818;stroke-width:1;" fill="none" id="scheduler-to-fresh" codeLine="20"/><polygon points="370.05,248.117,361.041,244.138,365.05,248.129,361.06,252.138,370.05,248.117" fill="#181818" style="stroke:#181818;stroke-width:1;stroke-linejoin:miter;stroke-miterlimit:10;"/><text x="186.81" y="232.514" fill="#000" font-size="13" textLength="145.234">3: run() [2 succeeded]</text></g><!--link fresh to ch--><g class="link" data-entity-1="ent0004" data-entity-2="ent0008" id="lnk16" data-source-line="21" data-link-type="dependency"><path d="M638.04,241.757 C731.43,240.217 859.21,237.397 971.65,232.447 C996.97,231.337 1020.182,229.902 1043.282,228.302" style="stroke:#181818;stroke-width:1;" fill="none" id="fresh-to-ch" codeLine="21"/><polygon points="1048.27,227.957,1039.015,224.588,1043.282,228.302,1039.568,232.569,1048.27,227.957" fill="#181818" style="stroke:#181818;stroke-width:1;stroke-linejoin:miter;stroke-miterlimit:10;"/><text x="698.65" y="228.514" fill="#000" font-size="13" textLength="242.772">3.1: max(created_utc) of reddit.posts</text></g><!--link scheduler to dbt--><g class="link" data-entity-1="ent0001" data-entity-2="ent0005" id="lnk17" data-source-line="22" data-link-type="dependency"><path d="M100.87,226.817 C120.12,241.687 149.35,261.837 178.31,272.447 C254.52,300.377 341.697,310.263 408.327,313.783" style="stroke:#181818;stroke-width:1;" fill="none" id="scheduler-to-dbt" codeLine="22"/><polygon points="413.32,314.047,404.544,309.578,408.327,313.783,404.122,317.567,413.32,314.047" fill="#181818" style="stroke:#181818;stroke-width:1;stroke-linejoin:miter;stroke-miterlimit:10;"/><text x="186.81" y="268.514" fill="#000" font-size="13" textLength="145.234">4: run() [3 succeeded]</text></g><!--link dbt to ch--><g class="link" data-entity-1="ent0005" data-entity-2="ent0008" id="lnk18" data-source-line="23" data-link-type="dependency"><path d="M594.31,324.347 C689.78,330.997 844.55,333.457 971.65,296.447 C1009.65,285.377 1044.245,263.24 1068.065,245.81" style="stroke:#181818;stroke-width:1;" fill="none" id="dbt-to-ch" codeLine="23"/><polygon points="1072.1,242.857,1062.475,244.944,1068.065,245.81,1067.199,251.4,1072.1,242.857" fill="#181818" style="stroke:#181818;stroke-width:1;stroke-linejoin:miter;stroke-miterlimit:10;"/><text x="719.95" y="262.514" fill="#000" font-size="13" textLength="199.412">4.1: build staging, facts, marts</text><text x="765.879" y="277.647" fill="#000" font-size="13" textLength="107.555">4.2: run 27 tests</text><text x="687.65" y="292.779" fill="#000" font-size="13" textLength="264.012">4.3: GRANT SELECT on marts TO analyst</text></g><?plantuml-src PLFRZjem47tFLupon5P0nKMgb8TA5B7RbTe50MzjXOmz8Lv2Z3pZillMZ-Wtx8VrIsex9JJmbdZEcNFcZCsQIuI5DHA9uAV64_pvzHkcvd1mbPQ2jQb0QR6puf21gH2KqEKhM5SbjDVLKVW2K26KEUbg1xae2PCISmOsOFMkO4-tA4EZ937RP_y9QJRHDY_D2LQoGELAj2a80Zh_DK1yOIiaRuw6cB9FWehv4QrWKnF-bHjuQOJQo5BBVM4SuIqX01gqslA6ZBCIDxb5AYgVmIqbbbgShTEbkWNwqdy3MZ-oX5MXVHIJnMD4Y7ZOW2mgfRbdnIbREkBx5MoTt2D7RFrvQJWDKtqEKyMoB9AaYGjwlO_dB223T9251NKKtQN9-JX0Qls8w0_UPK3eJuf5oBOZSaRRXItcnk8Lh_PIyuOP71tFewrENCjxHVrdCfKdjHs5i0DfsDY1RmCW9oMYGlKZJI8YG6KHWNtl_F5fDLkk_JLyWzNiosowXllb_2lGw4RDazhkF3zqU9YjeOMzDXPN6WYZsfdtDMpvgW4NOwFGzY1UEjAYO5GRn_8EJ0xr2ljHxLh5tuV07JSQevP6A5yKna4XNYmW5Zl_bhh-CKcchjUrJD-hSR_E4OOVW97g8p_0mtBoj3v7vLzhXCDw3g8IvIjn-XS0?></g></svg>