<svg xmlns="http://www.w3.org/2000/svg" xmlns:xlink="http://www.w3.org/1999/xlink" version="1.1" data-diagram-type="DESCRIPTION" style="width:1849px;height:892px;background:#FFFFFF;" width="1849px" height="892px" viewBox="0 0 1849 892" zoomAndPan="magnify" preserveAspectRatio="none" contentStyleType="text/css"><?plantuml 1.2026.8?><defs/><g font-family="sans-serif" lengthAdjust="spacing"><g class="title" data-source-line="1"><text x="677.683" y="22.995" fill="#000" font-size="14" textLength="487.108" font-weight="700">Physical view — Deployment diagram (local Docker Compose)</text></g><!--cluster laptop--><g class="cluster" data-qualified-name="laptop" id="ent0001" data-source-line="4"><polygon points="16,53.297,26,43.297,1513,43.297,1513,857.677,1503,867.677,16,867.677,16,53.297" fill="none" style="stroke:#181818;stroke-width:1;stroke-linejoin:miter;stroke-miterlimit:10;"/><line x1="1503" y1="53.297" x2="1513" y2="43.297" style="stroke:#181818;stroke-width:1;"/><line x1="16" y1="53.297" x2="1503" y2="53.297" style="stroke:#181818;stroke-width:1;"/><line x1="1503" y1="53.297" x2="1503" y2="867.677" style="stroke:#181818;stroke-width:1;"/><text x="656.481" y="69.292" fill="#000" font-size="14" textLength="208.038" font-weight="700">Developer laptop (macOS)</text></g><!--cluster docker--><g class="cluster" data-qualified-name="laptop.docker" id="ent0004" data-source-line="8"><polygon points="40,195.597,50,185.597,1329,185.597,1329,833.677,1319,843.677,40,843.677,40,195.597" fill="none" style="stroke:#181818;stroke-width:1;stroke-linejoin:miter;stroke-miterlimit:10;"/><line x1="1319" y1="195.597" x2="1329" y2="185.597" style="stroke:#181818;stroke-width:1;"/><line x1="40" y1="195.597" x2="1319" y2="195.597" style="stroke:#181818;stroke-width:1;"/><line x1="1319" y1="195.597" x2="1319" y2="843.677" style="stroke:#181818;stroke-width:1;"/><text x="469.833" y="211.592" fill="#000" font-size="14" textLength="421.333" font-weight="700">Docker Engine — compose project: reddit-submission</text></g><!--cluster ch--><g class="cluster" data-qualified-name="laptop.docker.ch" id="ent0005" data-source-line="9"><polygon points="856,427.197,866,417.197,1118,417.197,1118,541.787,1108,551.787,856,551.787,856,427.197" fill="none" style="stroke:#181818;stroke-width:1;stroke-linejoin:miter;stroke-miterlimit:10;"/><line x1="1108" y1="427.197" x2="1118" y2="417.197" style="stroke:#181818;stroke-width:1;"/><line x1="856" y1="427.197" x2="1108" y2="427.197" style="stroke:#181818;stroke-width:1;"/><line x1="1108" y1="427.197" x2="1108" y2="551.787" style="stroke:#181818;stroke-width:1;"/><text x="941.557" y="443.192" fill="#000" font-size="14" textLength="82.886" font-weight="700">clickhouse</text><text x="936.362" y="459.489" fill="#000" font-size="14" textLength="93.276" font-weight="700">«container»</text></g><!--cluster rustfs--><g class="cluster" data-qualified-name="laptop.docker.rustfs" id="ent0007" data-source-line="12"><polygon points="886,610.787,896,600.787,1088,600.787,1088,725.377,1078,735.377,886,735.377,886,610.787" fill="none" style="stroke:#181818;stroke-width:1;stroke-linejoin:miter;stroke-miterlimit:10;"/><line x1="1078" y1="610.787" x2="1088" y2="600.787" style="stroke:#181818;stroke-width:1;"/><line x1="886" y1="610.787" x2="1078" y2="610.787" style="stroke:#181818;stroke-width:1;"/><line x1="1078" y1="610.787" x2="1078" y2="735.377" style="stroke:#181818;stroke-width:1;"/><text x="959.84" y="626.782" fill="#000" font-size="14" textLength="46.32" font-weight="700">rustfs</text><text x="936.362" y="643.079" fill="#000" font-size="14" textLength="93.276" font-weight="700">«container»</text></g><!--cluster api--><g class="cluster" data-qualified-name="laptop.docker.api" id="ent0009" data-source-line="15"><polygon points="64,251.747,74,241.747,286,241.747,286,350.047,276,360.047,64,360.047,64,251.747" fill="none" style="stroke:#181818;stroke-width:1;stroke-linejoin:miter;stroke-miterlimit:10;"/><line x1="276" y1="251.747" x2="286" y2="241.747" style="stroke:#181818;stroke-width:1;"/><line x1="64" y1="251.747" x2="276" y2="251.747" style="stroke:#181818;stroke-width:1;"/><line x1="276" y1="251.747" x2="276" y2="360.047" style="stroke:#181818;stroke-width:1;"/><text x="103.536" y="267.742" fill="#000" font-size="14" textLength="134.928" font-weight="700">airflow-apiserver</text><text x="124.362" y="284.039" fill="#000" font-size="14" textLength="93.276" font-weight="700">«container»</text></g><!--cluster sched--><g class="cluster" data-qualified-name="laptop.docker.sched" id="ent0011" data-source-line="18"><polygon points="583,243.597,593,233.597,911,233.597,911,358.197,901,368.197,583,368.197,583,243.597" fill="none" style="stroke:#181818;stroke-width:1;stroke-linejoin:miter;stroke-miterlimit:10;"/><line x1="901" y1="243.597" x2="911" y2="233.597" style="stroke:#181818;stroke-width:1;"/><line x1="583" y1="243.597" x2="901" y2="243.597" style="stroke:#181818;stroke-width:1;"/><line x1="901" y1="243.597" x2="901" y2="368.197" style="stroke:#181818;stroke-width:1;"/><text x="674.159" y="259.592" fill="#000" font-size="14" textLength="137.683" font-weight="700">airflow-scheduler</text><text x="696.362" y="275.889" fill="#000" font-size="14" textLength="93.276" font-weight="700">«container»</text></g><!--cluster dagp--><g class="cluster" data-qualified-name="laptop.docker.dagp" id="ent0013" data-source-line="21"><polygon points="310,251.747,320,241.747,559,241.747,559,350.047,549,360.047,310,360.047,310,251.747" fill="none" style="stroke:#181818;stroke-width:1;stroke-linejoin:miter;stroke-miterlimit:10;"/><line x1="549" y1="251.747" x2="559" y2="241.747" style="stroke:#181818;stroke-width:1;"/><line x1="310" y1="251.747" x2="549" y2="251.747" style="stroke:#181818;stroke-width:1;"/><line x1="549" y1="251.747" x2="549" y2="360.047" style="stroke:#181818;stroke-width:1;"/><text x="343.885" y="267.742" fill="#000" font-size="14" textLength="173.229" font-weight="700">airflow-dag-processor</text><text x="383.862" y="284.039" fill="#000" font-size="14" textLength="93.276" font-weight="700">«container»</text></g><!--cluster dash--><g class="cluster" data-qualified-name="laptop.docker.dash" id="ent0015" data-source-line="24"><polygon points="935,243.597,945,233.597,1305,233.597,1305,358.197,1295,368.197,935,368.197,935,243.597" fill="none" style="stroke:#181818;stroke-width:1;stroke-linejoin:miter;stroke-miterlimit:10;"/><line x1="1295" y1="243.597" x2="1305" y2="233.597" style="stroke:#181818;stroke-width:1;"/><line x1="935" y1="243.597" x2="1295" y2="243.597" style="stroke:#181818;stroke-width:1;"/><line x1="1295" y1="243.597" x2="1295" y2="368.197" style="stroke:#181818;stroke-width:1;"/><text x="1074.109" y="259.592" fill="#000" font-size="14" textLength="83.781" font-weight="700">dashboard</text><text x="1069.362" y="275.889" fill="#000" font-size="14" textLength="93.276" font-weight="700">«container»</text></g><!--cluster pg--><g class="cluster" data-qualified-name="laptop.docker.pg" id="ent0017" data-source-line="27"><polygon points="323,427.697,333,417.697,528,417.697,528,541.287,518,551.287,323,551.287,323,427.697" fill="none" style="stroke:#181818;stroke-width:1;stroke-linejoin:miter;stroke-miterlimit:10;"/><line x1="518" y1="427.697" x2="528" y2="417.697" style="stroke:#181818;stroke-width:1;"/><line x1="323" y1="427.697" x2="518" y2="427.697" style="stroke:#181818;stroke-width:1;"/><line x1="518" y1="427.697" x2="518" y2="551.287" style="stroke:#181818;stroke-width:1;"/><text x="356.589" y="443.692" fill="#000" font-size="14" textLength="129.821" font-weight="700">airflow-postgres</text><text x="374.862" y="459.989" fill="#000" font-size="14" textLength="93.276" font-weight="700">«container»</text></g><!--cluster Internet--><g class="cluster" data-qualified-name="Internet" id="ent0023" data-source-line="37"><path d="M1545.889,456.309 C1550.833,447.109 1560.41,446.39 1566.162,455.41 C1571.914,446.623 1579.142,445.109 1585.282,455.014 C1590.806,444.505 1599.219,445.561 1604.607,455.146 C1610.903,446.063 1616.981,445.752 1623.947,454.416 C1628.389,445.372 1635.43,444.672 1641.199,453.105 C1648.3,441.973 1655.486,445.02 1661.92,453.8 C1665.612,444.701 1672.661,444.785 1678.134,452.033 C1684.939,442.082 1691.104,443.237 1698.219,451.694 C1703.926,443.335 1712.137,442.887 1717.509,452.063 C1723.923,443.669 1729.627,442.098 1736.081,452.022 C1742.91,442.747 1750.902,442.847 1755.704,453.97 C1760.263,444.113 1768.349,445.403 1773.463,453.418 C1779.628,444.117 1786.8,444.177 1792.659,453.729 C1799.197,445.696 1806.949,445.815 1812.489,454.887 C1823.988,459.334 1826.013,467.998 1818.256,477.382 C1830.319,480.709 1834.474,487.658 1825.632,498.341 C1832.146,507.839 1830.454,515.034 1818.862,518.431 C1827.826,527.903 1824.629,535.252 1813.006,538.807 C1807.392,548.791 1799.951,549.4 1793.645,539.48 C1788.711,548.609 1779.613,548.26 1774.199,540.018 C1769.837,549.293 1764.48,551.314 1757.002,543.079 C1750.953,552.707 1743.226,555.174 1735.346,545.09 C1729.608,553.902 1721.982,552.981 1717.527,543.818 C1712.987,554.558 1704.488,554.605 1697.015,547.12 C1693.533,555.514 1686.511,555.848 1681.52,548.617 C1674.268,556.12 1666.395,556.369 1662.04,545.539 C1656.066,554.808 1648.28,555.321 1642.577,545.266 C1636.238,553.223 1625.6,553.756 1621.394,542.868 C1616.47,549.02 1608.749,548.572 1605.099,541.32 C1599.702,549.198 1591.962,549.18 1586.278,541.673 C1577.97,550.752 1570.805,551.085 1564.69,539.393 C1559.037,548.346 1549.906,548.412 1545.457,538.186 C1535.126,532.564 1534.985,524.598 1545.168,518.672 C1533.745,512.366 1535.764,502.447 1545.442,496.4 C1536.725,490.34 1533.911,480.851 1545.622,474.962 C1535.483,468.746 1535.678,462.233 1545.889,456.309" style="stroke:#181818;stroke-width:1;" fill="none"/><text x="1645.789" y="472.332" fill="#000" font-size="14" textLength="64.422" font-weight="700">Internet</text></g><!--entity browser--><g class="entity" data-qualified-name="laptop.browser" id="ent0002" data-source-line="5"><rect x="131.48" y="83.297" width="87.039" height="39.297" fill="#F1F1F1" style="stroke:#181818;stroke-width:0.5;" rx="2.5" ry="2.5"/><polygon points="201.519,88.297,201.519,102.297,213.519,102.297,213.519,94.297,207.519,88.297,201.519,88.297" fill="#F1F1F1" style="stroke:#181818;stroke-width:0.5;stroke-linejoin:miter;stroke-miterlimit:10;"/><line x1="207.519" y1="88.297" x2="207.519" y2="94.297" style="stroke:#181818;stroke-width:0.5;"/><line x1="213.519" y1="94.297" x2="207.519" y2="94.297" style="stroke:#181818;stroke-width:0.5;"/><text x="141.48" y="109.292" fill="#000" font-size="14" textLength="57.039">Browser</text></g><!--entity hostcli--><g class="entity" data-qualified-name="laptop.hostcli" id="ent0003" data-source-line="6"><rect x="1345.43" y="293.097" width="151.133" height="55.594" fill="#F1F1F1" style="stroke:#181818;stroke-width:0.5;" rx="2.5" ry="2.5"/><polygon points="1479.563,298.097,1479.563,312.097,1491.563,312.097,1491.563,304.097,1485.563,298.097,1479.563,298.097" fill="#F1F1F1" style="stroke:#181818;stroke-width:0.5;stroke-linejoin:miter;stroke-miterlimit:10;"/><line x1="1485.563" y1="298.097" x2="1485.563" y2="304.097" style="stroke:#181818;stroke-width:0.5;"/><line x1="1491.563" y1="304.097" x2="1485.563" y2="304.097" style="stroke:#181818;stroke-width:0.5;"/><text x="1355.43" y="319.092" fill="#000" font-size="14" textLength="111.809">scripts/*.py, dbt</text><text x="1355.43" y="335.389" fill="#000" font-size="14" textLength="121.133">(uv, Python 3.12)</text></g><!--entity vch--><g class="entity" data-qualified-name="laptop.docker.vch" id="ent0019" data-source-line="30"><path d="M736.96,675.437 C736.96,665.437 802.003,665.437 802.003,665.437 C802.003,665.437 867.046,665.437 867.046,675.437 L867.046,700.734 C867.046,710.734 802.003,710.734 802.003,710.734 C802.003,710.734 736.96,710.734 736.96,700.734 L736.96,675.437" style="stroke:#181818;stroke-width:0.5;" fill="#F1F1F1"/><path d="M736.96,675.437 C736.96,685.437 802.003,685.437 802.003,685.437 C802.003,685.437 867.046,685.437 867.046,675.437" style="stroke:#181818;stroke-width:0.5;" fill="none"/><text x="746.96" y="702.432" fill="#000" font-size="14" textLength="110.086">clickhouse-data</text></g><!--entity vrfs--><g class="entity" data-qualified-name="laptop.docker.vrfs" id="ent0020" data-source-line="31"><path d="M938.89,792.377 C938.89,782.377 987,782.377 987,782.377 C987,782.377 1035.111,782.377 1035.111,792.377 L1035.111,817.674 C1035.111,827.674 987,827.674 987,827.674 C987,827.674 938.89,827.674 938.89,817.674 L938.89,792.377" style="stroke:#181818;stroke-width:0.5;" fill="#F1F1F1"/><path d="M938.89,792.377 C938.89,802.377 987,802.377 987,802.377 C987,802.377 1035.111,802.377 1035.111,792.377" style="stroke:#181818;stroke-width:0.5;" fill="none"/><text x="948.89" y="819.372" fill="#000" font-size="14" textLength="76.221">rustfs-data</text></g><!--entity vpg--><g class="entity" data-qualified-name="laptop.docker.vpg" id="ent0021" data-source-line="32"><path d="M366.31,675.437 C366.31,665.437 424.996,665.437 424.996,665.437 C424.996,665.437 483.681,665.437 483.681,675.437 L483.681,700.734 C483.681,710.734 424.996,710.734 424.996,710.734 C424.996,710.734 366.31,710.734 366.31,700.734 L366.31,675.437" style="stroke:#181818;stroke-width:0.5;" fill="#F1F1F1"/><path d="M366.31,675.437 C366.31,685.437 424.996,685.437 424.996,685.437 C424.996,685.437 483.681,685.437 483.681,675.437" style="stroke:#181818;stroke-width:0.5;" fill="none"/><text x="376.31" y="702.432" fill="#000" font-size="14" textLength="97.371">postgres-data</text></g><!--entity vlogs--><g class="entity" data-qualified-name="laptop.docker.vlogs" id="ent0022" data-source-line="33"><path d="M570.63,491.837 C570.63,481.837 621.003,481.837 621.003,481.837 C621.003,481.837 671.376,481.837 671.376,491.837 L671.376,517.134 C671.376,527.134 621.003,527.134 621.003,527.134 C621.003,527.134 570.63,527.134 570.63,517.134 L570.63,491.837" style="stroke:#181818;stroke-width:0.5;" fill="#F1F1F1"/><path d="M570.63,491.837 C570.63,501.837 621.003,501.837 621.003,501.837 C621.003,501.837 671.376,501.837 671.376,491.837" style="stroke:#181818;stroke-width:0.5;" fill="none"/><text x="580.63" y="518.832" fill="#000" font-size="14" textLength="80.746">airflow-logs</text></g><!--entity chs--><g class="entity" data-qualified-name="laptop.docker.ch.chs" id="ent0006" data-source-line="10"><rect x="871.81" y="473.197" width="230.388" height="62.594" fill="#F1F1F1" style="stroke:#181818;stroke-width:0.5;" rx="2.5" ry="2.5"/><rect x="1082.198" y="478.197" width="15" height="10" fill="#F1F1F1" style="stroke:#181818;stroke-width:0.5;"/><rect x="1080.198" y="480.197" width="4" height="2" fill="#F1F1F1" style="stroke:#181818;stroke-width:0.5;"/><rect x="1080.198" y="484.197" width="4" height="2" fill="#F1F1F1" style="stroke:#181818;stroke-width:0.5;"/><text x="886.81" y="506.192" fill="#000" font-size="14" textLength="161">ClickHouse server 26.x</text><text x="886.81" y="522.489" fill="#000" font-size="14" textLength="190.388">(users: default, dashboard)</text></g><!--entity rfs--><g class="entity" data-qualified-name="laptop.docker.rustfs.rfs" id="ent0008" data-source-line="13"><rect x="902.28" y="656.787" width="169.445" height="62.594" fill="#F1F1F1" style="stroke:#181818;stroke-width:0.5;" rx="2.5" ry="2.5"/><rect x="1051.725" y="661.787" width="15" height="10" fill="#F1F1F1" style="stroke:#181818;stroke-width:0.5;"/><rect x="1049.725" y="663.787" width="4" height="2" fill="#F1F1F1" style="stroke:#181818;stroke-width:0.5;"/><rect x="1049.725" y="667.787" width="4" height="2" fill="#F1F1F1" style="stroke:#181818;stroke-width:0.5;"/><text x="917.28" y="689.782" fill="#000" font-size="14" textLength="88.396">RustFS 1.0.0</text><text x="917.28" y="706.079" fill="#000" font-size="14" textLength="129.445">(S3 API + console)</text></g><!--entity apis--><g class="entity" data-qualified-name="laptop.docker.api.apis" id="ent0010" data-source-line="16"><rect x="80.13" y="297.747" width="189.734" height="46.297" fill="#F1F1F1" style="stroke:#181818;stroke-width:0.5;" rx="2.5" ry="2.5"/><rect x="249.864" y="302.747" width="15" height="10" fill="#F1F1F1" style="stroke:#181818;stroke-width:0.5;"/><rect x="247.864" y="304.747" width="4" height="2" fill="#F1F1F1" style="stroke:#181818;stroke-width:0.5;"/><rect x="247.864" y="308.747" width="4" height="2" fill="#F1F1F1" style="stroke:#181818;stroke-width:0.5;"/><text x="95.13" y="330.742" fill="#000" font-size="14" textLength="149.734">Airflow 3.3.2 API + UI</text></g><!--entity scheds--><g class="entity" data-qualified-name="laptop.docker.sched.scheds" id="ent0012" data-source-line="19"><rect x="599.47" y="289.597" width="295.069" height="62.594" fill="#F1F1F1" style="stroke:#181818;stroke-width:0.5;" rx="2.5" ry="2.5"/><rect x="874.539" y="294.597" width="15" height="10" fill="#F1F1F1" style="stroke:#181818;stroke-width:0.5;"/><rect x="872.539" y="296.597" width="4" height="2" fill="#F1F1F1" style="stroke:#181818;stroke-width:0.5;"/><rect x="872.539" y="300.597" width="4" height="2" fill="#F1F1F1" style="stroke:#181818;stroke-width:0.5;"/><text x="614.47" y="322.592" fill="#000" font-size="14" textLength="189.376">Scheduler + LocalExecutor</text><text x="614.47" y="338.889" fill="#000" font-size="14" textLength="255.069">(runs BashOperator tasks, dbt venv)</text></g><!--entity dagps--><g class="entity" data-qualified-name="laptop.docker.dagp.dagps" id="ent0014" data-source-line="22"><rect x="352.96" y="297.747" width="144.084" height="46.297" fill="#F1F1F1" style="stroke:#181818;stroke-width:0.5;" rx="2.5" ry="2.5"/><rect x="477.044" y="302.747" width="15" height="10" fill="#F1F1F1" style="stroke:#181818;stroke-width:0.5;"/><rect x="475.044" y="304.747" width="4" height="2" fill="#F1F1F1" style="stroke:#181818;stroke-width:0.5;"/><rect x="475.044" y="308.747" width="4" height="2" fill="#F1F1F1" style="stroke:#181818;stroke-width:0.5;"/><text x="367.96" y="330.742" fill="#000" font-size="14" textLength="104.084">DAG processor</text></g><!--entity dashs--><g class="entity" data-qualified-name="laptop.docker.dash.dashs" id="ent0016" data-source-line="25"><rect x="951.11" y="289.597" width="337.78" height="62.594" fill="#F1F1F1" style="stroke:#181818;stroke-width:0.5;" rx="2.5" ry="2.5"/><rect x="1268.89" y="294.597" width="15" height="10" fill="#F1F1F1" style="stroke:#181818;stroke-width:0.5;"/><rect x="1266.89" y="296.597" width="4" height="2" fill="#F1F1F1" style="stroke:#181818;stroke-width:0.5;"/><rect x="1266.89" y="300.597" width="4" height="2" fill="#F1F1F1" style="stroke:#181818;stroke-width:0.5;"/><text x="966.11" y="322.592" fill="#000" font-size="14" textLength="142.987">Streamlit dashboard</text><text x="966.11" y="338.889" fill="#000" font-size="14" textLength="297.78">(ClickHouse user: dashboard, role analyst)</text></g><!--entity pgdb--><g class="entity" data-qualified-name="laptop.docker.pg.pgdb" id="ent0018" data-source-line="28"><path d="M349.36,483.697 C349.36,473.697 425.002,473.697 425.002,473.697 C425.002,473.697 500.644,473.697 500.644,483.697 L500.644,525.291 C500.644,535.291 425.002,535.291 425.002,535.291 C425.002,535.291 349.36,535.291 349.36,525.291 L349.36,483.697" style="stroke:#181818;stroke-width:0.5;" fill="#F1F1F1"/><path d="M349.36,483.697 C349.36,493.697 425.002,493.697 425.002,493.697 C425.002,493.697 500.644,493.697 500.644,483.697" style="stroke:#181818;stroke-width:0.5;" fill="none"/><text x="359.36" y="510.692" fill="#000" font-size="14" textLength="82.605">Postgres 16</text><text x="359.36" y="526.989" fill="#000" font-size="14" textLength="131.284">(Airflow metadata)</text></g><!--entity arctic--><g class="entity" data-qualified-name="Internet.arctic" id="ent0024" data-source-line="38"><polygon points="1553.37,491.337,1563.37,481.337,1802.632,481.337,1802.632,517.634,1792.632,527.634,1553.37,527.634,1553.37,491.337" fill="#F1F1F1" style="stroke:#181818;stroke-width:0.5;stroke-linejoin:miter;stroke-miterlimit:10;"/><line x1="1792.632" y1="491.337" x2="1802.632" y2="481.337" style="stroke:#181818;stroke-width:0.5;"/><line x1="1553.37" y1="491.337" x2="1792.632" y2="491.337" style="stroke:#181818;stroke-width:0.5;"/><line x1="1792.632" y1="491.337" x2="1792.632" y2="527.634" style="stroke:#181818;stroke-width:0.5;"/><text x="1568.37" y="514.332" fill="#000" font-size="14" textLength="209.262">arctic-shift.photon-reddit.com</text></g><!--link chs to vch--><g class="link" data-entity-1="ent0006" data-entity-2="ent0019" id="lnk25" data-source-line="41" data-link-type="association"><path d="M949.51,535.897 C930.03,552.187 906.14,572.947 886,592.787 C862.1,616.327 836.77,645.417 820.25,665.007" style="stroke:#181818;stroke-width:1;" fill="none" id="chs-vch"/></g><!--link rfs to vrfs--><g class="link" data-entity-1="ent0008" data-entity-2="ent0020" id="lnk26" data-source-line="42" data-link-type="association"><path d="M987,719.587 C987,739.267 987,764.417 987,782.137" style="stroke:#181818;stroke-width:1;" fill="none" id="rfs-vrfs"/></g><!--link pgdb to vpg--><g class="link" data-entity-1="ent0018" data-entity-2="ent0021" id="lnk27" data-source-line="43" data-link-type="association"><path d="M425,535.477 C425,571.947 425,632.627 425,665.057" style="stroke:#181818;stroke-width:1;" fill="none" id="pgdb-vpg"/></g><!--link scheds to vlogs--><g class="link" data-entity-1="ent0012" data-entity-2="ent0022" id="lnk28" data-source-line="44" data-link-type="association"><path d="M725.91,352.287 C700.55,388.837 658.61,449.287 636.21,481.577" style="stroke:#181818;stroke-width:1;" fill="none" id="scheds-vlogs"/></g><!--link browser to apis--><g class="link" data-entity-1="ent0002" data-entity-2="ent0010" id="lnk29" data-source-line="46" data-link-type="dependency"><path d="M175,122.737 C175,162.447 175,249.767 175,292.477" style="stroke:#181818;stroke-width:1;" fill="none" id="browser-to-apis"/><polygon points="175,297.477,179,288.477,175,292.477,171,288.477,175,297.477" fill="#181818" style="stroke:#181818;stroke-width:1;stroke-linejoin:miter;stroke-miterlimit:10;"/><text x="176" y="165.664" fill="#000" font-size="13" textLength="137.116">HTTP 127.0.0.1:8080</text></g><!--link browser to dashs--><g class="link" data-entity-1="ent0002" data-entity-2="ent0016" id="lnk30" data-source-line="47" data-link-type="dependency"><path d="M218.95,105.507 C357.31,110.867 782.32,130.807 911,177.597 C979.89,202.647 1044.063,252.29 1082.983,286.06" style="stroke:#181818;stroke-width:1;" fill="none" id="browser-to-dashs"/><polygon points="1086.76,289.337,1082.584,280.417,1082.983,286.06,1077.341,286.46,1086.76,289.337" fill="#181818" style="stroke:#181818;stroke-width:1;stroke-linejoin:miter;stroke-miterlimit:10;"/><text x="879.8" y="165.664" fill="#000" font-size="13" textLength="137.116">HTTP 127.0.0.1:8501</text></g><!--link dashs to chs--><g class="link" data-entity-1="ent0016" data-entity-2="ent0006" id="lnk31" data-source-line="48" data-link-type="dependency"><path d="M1001.43,352.597 C987.89,360.767 975.8,371.107 967,384.197 C949.36,410.417 957.367,442.456 968.617,468.186" style="stroke:#181818;stroke-width:1;" fill="none" id="dashs-to-chs"/><polygon points="970.62,472.767,970.679,462.918,968.617,468.186,963.349,466.123,970.62,472.767" fill="#181818" style="stroke:#181818;stroke-width:1;stroke-linejoin:miter;stroke-miterlimit:10;"/><text x="968" y="397.264" fill="#000" font-size="13" textLength="227.094">HTTP clickhouse:8123 (marts only)</text></g><!--link browser to rfs--><g class="link" data-entity-1="ent0002" data-entity-2="ent0008" id="lnk32" data-source-line="49" data-link-type="dependency"><path d="M131.13,120.657 C106.62,132.527 78.22,151.107 64,177.597 C22.27,255.377 22.78,298.147 64,376.197 C214.82,661.737 437.62,566.007 760,584.787 C775.33,585.677 884.08,586.297 898,592.787 C927.38,606.477 948.952,630.547 964.752,652.527" style="stroke:#181818;stroke-width:1;" fill="none" id="browser-to-rfs"/><polygon points="967.67,656.587,965.665,646.944,964.752,652.527,959.169,651.614,967.67,656.587" fill="#181818" style="stroke:#181818;stroke-width:1;stroke-linejoin:miter;stroke-miterlimit:10;"/><text x="75.56" y="397.264" fill="#000" font-size="13" textLength="201.068">HTTP 127.0.0.1:9001 (console)</text></g><!--link hostcli to chs--><g class="link" data-entity-1="ent0003" data-entity-2="ent0006" id="lnk33" data-source-line="50" data-link-type="dependency"><path d="M1372.13,349.117 C1351.93,359.207 1327.9,369.747 1305,376.197 C1274.01,384.907 1263.98,375.417 1233,384.197 C1215.98,389.017 1214.08,396.567 1197,401.197 C1157.81,411.807 1143.72,394.177 1106,409.197 C1070.98,423.137 1041.527,447.433 1019.197,469.243" style="stroke:#181818;stroke-width:1;" fill="none" id="hostcli-to-chs"/><polygon points="1015.62,472.737,1024.853,469.31,1019.197,469.243,1019.264,463.587,1015.62,472.737" fill="#181818" style="stroke:#181818;stroke-width:1;stroke-linejoin:miter;stroke-miterlimit:10;"/><text x="1234" y="397.264" fill="#000" font-size="13" textLength="137.116">HTTP 127.0.0.1:8123</text></g><!--link hostcli to rfs--><g class="link" data-entity-1="ent0003" data-entity-2="ent0008" id="lnk34" data-source-line="51" data-link-type="dependency"><path d="M1409.14,349.067 C1401.24,365.297 1389.78,385.697 1376,401.197 C1275.64,514.107 1128.093,607.251 1046.993,653.971" style="stroke:#181818;stroke-width:1;" fill="none" id="hostcli-to-rfs"/><polygon points="1042.66,656.467,1052.455,655.44,1046.993,653.971,1048.462,648.508,1042.66,656.467" fill="#181818" style="stroke:#181818;stroke-width:1;stroke-linejoin:miter;stroke-miterlimit:10;"/><text x="1367.35" y="509.054" fill="#000" font-size="13" textLength="120.142">S3 127.0.0.1:9002</text></g><!--link scheds to arctic--><g class="link" data-entity-1="ent0012" data-entity-2="ent0024" id="lnk35" data-source-line="52" data-link-type="dependency"><path d="M835.33,352.677 C866.44,362.107 901.9,371.277 935,376.197 C966.77,380.917 1482.52,374.097 1513,384.197 C1571.72,403.647 1623.697,448.739 1652.967,477.549" style="stroke:#181818;stroke-width:1;" fill="none" id="scheds-to-arctic"/><polygon points="1656.53,481.057,1652.922,471.893,1652.967,477.549,1647.31,477.594,1656.53,481.057" fill="#181818" style="stroke:#181818;stroke-width:1;stroke-linejoin:miter;stroke-miterlimit:10;"/><text x="1549.48" y="397.264" fill="#000" font-size="13" textLength="41.749">HTTPS</text></g><!--link scheds to rfs--><g class="link" data-entity-1="ent0012" data-entity-2="ent0008" id="lnk36" data-source-line="53" data-link-type="dependency"><path d="M744.33,352.457 C740.03,409.487 734.43,529.137 760,559.787 C800.4,608.207 843.41,561.207 898,592.787 C925.47,608.677 946.628,631.716 962.838,652.756" style="stroke:#181818;stroke-width:1;" fill="none" id="scheds-to-rfs"/><polygon points="965.89,656.717,963.566,647.146,962.838,652.756,957.229,652.029,965.89,656.717" fill="#181818" style="stroke:#181818;stroke-width:1;stroke-linejoin:miter;stroke-miterlimit:10;"/><text x="761" y="509.054" fill="#000" font-size="13" textLength="94.923">S3 rustfs:9000</text></g><!--link scheds to chs--><g class="link" data-entity-1="ent0012" data-entity-2="ent0006" id="lnk37" data-source-line="54" data-link-type="dependency"><path d="M763.01,352.667 C773.34,369.527 788.34,389.357 807,401.197 C821.57,410.437 829.08,402.517 845,409.197 C883.21,425.207 918.126,448.873 945.516,469.783" style="stroke:#181818;stroke-width:1;" fill="none" id="scheds-to-chs"/><polygon points="949.49,472.817,944.764,464.176,945.516,469.783,939.909,470.535,949.49,472.817" fill="#181818" style="stroke:#181818;stroke-width:1;stroke-linejoin:miter;stroke-miterlimit:10;"/><text x="808" y="397.264" fill="#000" font-size="13" textLength="143.343">HTTP clickhouse:8123</text></g><!--link chs to rfs--><g class="link" data-entity-1="ent0006" data-entity-2="ent0008" id="lnk38" data-source-line="55" data-link-type="dependency"><path d="M987,535.887 C987,569.407 987,618.027 987,651.587" style="stroke:#181818;stroke-width:1;" fill="none" id="chs-to-rfs"/><polygon points="987,656.587,991,647.587,987,651.587,983,647.587,987,656.587" fill="#181818" style="stroke:#181818;stroke-width:1;stroke-linejoin:miter;stroke-miterlimit:10;"/><text x="988" y="580.854" fill="#000" font-size="13" textLength="103.587">s3() rustfs:9000</text></g><!--link scheds to pgdb--><g class="link" data-entity-1="ent0012" data-entity-2="ent0018" id="lnk39" data-source-line="56" data-link-type="dependency"><path d="M599.04,345.127 C568.91,354.177 538.63,366.747 513,384.197 C479.81,406.787 456.772,441.751 441.982,469.051" style="stroke:#181818;stroke-width:1;" fill="none" id="scheds-to-pgdb"/><polygon points="439.6,473.447,447.404,467.439,441.982,469.051,440.37,463.628,439.6,473.447" fill="#181818" style="stroke:#181818;stroke-width:1;stroke-linejoin:miter;stroke-miterlimit:10;"/><text x="514" y="397.264" fill="#000" font-size="13" textLength="25.727">SQL</text></g><!--link apis to pgdb--><g class="link" data-entity-1="ent0010" data-entity-2="ent0018" id="lnk40" data-source-line="57" data-link-type="dependency"><path d="M237.23,344.477 C271.72,359.167 313.8,380.867 345,409.197 C366.46,428.677 384.458,449.882 399.588,469.312" style="stroke:#181818;stroke-width:1;" fill="none" id="apis-to-pgdb"/><polygon points="402.66,473.257,400.286,463.698,399.588,469.312,393.974,468.613,402.66,473.257" fill="#181818" style="stroke:#181818;stroke-width:1;stroke-linejoin:miter;stroke-miterlimit:10;"/><text x="334.24" y="397.264" fill="#000" font-size="13" textLength="25.727">SQL</text></g><!--link dagps to pgdb--><g class="link" data-entity-1="ent0014" data-entity-2="ent0018" id="lnk41" data-source-line="58" data-link-type="dependency"><path d="M425,344.527 C425,377.047 425,432.047 425,468.307" style="stroke:#181818;stroke-width:1;" fill="none" id="dagps-to-pgdb"/><polygon points="425,473.307,429,464.307,425,468.307,421,464.307,425,473.307" fill="#181818" style="stroke:#181818;stroke-width:1;stroke-linejoin:miter;stroke-miterlimit:10;"/><text x="426" y="397.264" fill="#000" font-size="13" textLength="25.727">SQL</text></g><?plantuml-src VLHTRzem57tFhxZA4smbuqFhEbGXjQLRArKg6zrRNunZY8Un8ry7YgPA-n7xXVibyqS2eOIz9RxdddFkXssu4GmcsHOv9GBMd6tWx-y_C6QvKDiLamPIJXQQhA0bb8EC5Lqo3JTgbIjaxGYNNER40J0ZgTfmkO0v4SYYIAgKGJncQoPKRdC4oOtAeRKYz77QZe5WTVGh0Y3Qy3cX1k9hhJR8j0VCmlT17AdckS4Fxv9yUmRfp3pBLh4-WydMP4h28Edr0tkcq5318vjTUWdcR-M2I-OBfQ4EoBNwoQWPWcPfoaq7YzcA8t8bFLCQ4ftFYiiIqsMc2cJFylAIAcc89TMZaK-WMGc6825TA-CRbtFdSi0MjRQC_VFanTctlpY4bCr98OmjYc0sKqIdxP8DFTbhJLyNQEROf1qYJVhVRUJB57f9D-bQrUa0hYRtyDv292h1WfYU7uiHhkT2RJeavy5uawuDDebUXLmxbq7IBmL_t5SPfxMGPYmjHBEM3pQfJQiig_BWDlRsXT72AClIqeL4kBQjVRJhIEmP689Bz3i4QoRNxJttQLyfMNJikb26g1gzMK3UP6ryzHLsYJlaiT1k-CtasBXQKwCPMGbke9RUgYsSMx7XFdW6sauSY2HYYwQzupvTjxqdPg5PuyhbYvsdb1Wo8rOmdfG9q3ktLgerM3537APT9gQpck8-UN-zEkxGWzSqUuCAgrv3LCkxXrIsQw1yyGPJbIZK0WF4VKNErMiKKQ6A5E9xQPYMpCI-rB8tcXfEEvZnkKdoJ1abE-45IUnimevxYEV943eTNuMrwJ-TNTS2_sDjXTNpVzv1LBv_zcJaRmiC8RvxUff0h__9tUAaDxpeNdJZ0w2VOnFoOxSNHo7gSBI6slTxUD7h3zmhhGs2acBRFcHtte-vFtUxFMZj7fAeV7kFT6fkhCmXhcIspz81Rp_UzsLKzhFYcnx4zWHXCLnszm3ndvBZSa0x6XoqsYU9_DISrhU7EFAJEJhrj_le-1y0?></g></svg>