<svg xmlns="http://www.w3.org/2000/svg" xmlns:xlink="http://www.w3.org/1999/xlink" version="1.1" data-diagram-type="CLASS" style="width:715px;height:1220px;background:#FFFFFF;" width="715px" height="1220px" viewBox="0 0 715 1220" zoomAndPan="magnify" preserveAspectRatio="none" contentStyleType="text/css"><?plantuml 1.2026.8?><defs/><g font-family="sans-serif" lengthAdjust="spacing"><g class="title" data-source-line="1"><text x="145.066" y="22.995" fill="#000" font-size="14" textLength="417.867" font-weight="700">Logical view — Data model (ClickHouse, built by dbt)</text></g><!--cluster reddit (raw)--><g class="cluster" data-qualified-name="reddit .raw." id="ent0001" data-source-line="6"><path d="M56.5,43.297 L152.39,43.297 A3.75,3.75 0 0 1 154.89,45.797 L161.89,65.594 L425.5,65.594 A2.5,2.5 0 0 1 428,68.094 L428,288.767 A2.5,2.5 0 0 1 425.5,291.267 L56.5,291.267 A2.5,2.5 0 0 1 54,288.767 L54,45.797 A2.5,2.5 0 0 1 56.5,43.297" style="stroke:#000;stroke-width:1.5;" fill="none"/><line x1="54" y1="65.594" x2="161.89" y2="65.594" style="stroke:#000;stroke-width:1.5;"/><text x="58" y="58.292" fill="#000" font-size="14" textLength="94.89" font-weight="700">reddit (raw)</text></g><!--cluster reddit_analytics — staging--><g class="cluster" data-qualified-name="reddit_analytics . staging" id="ent0003" data-source-line="22"><path d="M79.5,340.267 L289.372,340.267 A3.75,3.75 0 0 1 291.872,342.767 L298.872,362.564 L402.5,362.564 A2.5,2.5 0 0 1 405,365.064 L405,545.137 A2.5,2.5 0 0 1 402.5,547.637 L79.5,547.637 A2.5,2.5 0 0 1 77,545.137 L77,342.767 A2.5,2.5 0 0 1 79.5,340.267" style="stroke:#000;stroke-width:1.5;" fill="none"/><line x1="77" y1="362.564" x2="298.872" y2="362.564" style="stroke:#000;stroke-width:1.5;"/><text x="81" y="355.262" fill="#000" font-size="14" textLength="208.872" font-weight="700">reddit_analytics — staging</text></g><!--cluster reddit_analytics — seeds--><g class="cluster" data-qualified-name="reddit_analytics . seeds" id="ent0005" data-source-line="34"><path d="M448.5,356.557 L644.769,356.557 A3.75,3.75 0 0 1 647.269,359.057 L654.269,378.854 L657.5,378.854 A2.5,2.5 0 0 1 660,381.354 L660,528.847 A2.5,2.5 0 0 1 657.5,531.347 L448.5,531.347 A2.5,2.5 0 0 1 446,528.847 L446,359.057 A2.5,2.5 0 0 1 448.5,356.557" style="stroke:#000;stroke-width:1.5;" fill="none"/><line x1="446" y1="378.854" x2="654.269" y2="378.854" style="stroke:#000;stroke-width:1.5;"/><text x="450" y="371.552" fill="#000" font-size="14" textLength="195.269" font-weight="700">reddit_analytics — seeds</text></g><!--cluster reddit_analytics — mart  (SELECT granted to analyst)--><g class="cluster" data-qualified-name="reddit_analytics . mart  .SELECT granted to analyst." id="ent0007" data-source-line="44"><path d="M8.5,596.637 L428.516,596.637 A3.75,3.75 0 0 1 431.016,599.137 L438.016,618.934 L697.5,618.934 A2.5,2.5 0 0 1 700,621.434 L700,1203.077 A2.5,2.5 0 0 1 697.5,1205.577 L8.5,1205.577 A2.5,2.5 0 0 1 6,1203.077 L6,599.137 A2.5,2.5 0 0 1 8.5,596.637" style="stroke:#000;stroke-width:1.5;" fill="none"/><line x1="6" y1="618.934" x2="438.016" y2="618.934" style="stroke:#000;stroke-width:1.5;"/><text x="10" y="611.632" fill="#000" font-size="14" textLength="419.016" font-weight="700">reddit_analytics — mart  (SELECT granted to analyst)</text></g><!--class raw--><g class="entity" data-qualified-name="reddit .raw..raw" id="ent0002" data-source-line="7"><rect x="70.11" y="78.297" width="341.772" height="196.969" fill="#F1F1F1" style="stroke:#181818;stroke-width:0.5;" rx="2.5" ry="2.5"/><text x="222.232" y="96.292" fill="#000" font-size="14" textLength="37.529">posts</text><line x1="71.11" y1="104.594" x2="410.882" y2="104.594" style="stroke:#181818;stroke-width:0.5;"/><g data-visibility-modifier="IE_MANDATORY"><ellipse cx="81.11" cy="118.242" rx="3" ry="3" fill="#000" style="stroke:#000;stroke-width:1;"/></g><text x="90.11" y="121.589" fill="#000" font-size="14" textLength="68.175">id : String</text><line x1="71.11" y1="128.891" x2="410.882" y2="128.891" style="stroke:#181818;stroke-width:1;"/><text x="76.11" y="145.886" fill="#000" font-size="14" textLength="191.454">title, selftext, link_flair_text</text><text x="76.11" y="162.183" fill="#000" font-size="14" textLength="84.417">author «PII»</text><text x="76.11" y="178.479" fill="#000" font-size="14" textLength="255.91">score, num_comments, upvote_ratio</text><text x="76.11" y="194.776" fill="#000" font-size="14" textLength="155.401">removed_by_category</text><text x="76.11" y="211.073" fill="#000" font-size="14" textLength="179.936">created_utc, retrieved_on</text><text x="76.11" y="227.37" fill="#000" font-size="14" textLength="157.097">raw : String (full JSON)</text><text x="76.11" y="243.667" fill="#000" font-size="14" textLength="75.489">_loaded_at</text><line x1="71.11" y1="250.969" x2="410.882" y2="250.969" style="stroke:#181818;stroke-width:1;stroke-dasharray:1,2;"/><text x="76.11" y="267.964" fill="#000" font-size="14" textLength="329.772">ReplacingMergeTree(_loaded_at), ORDER BY id</text></g><!--class stg--><g class="entity" data-qualified-name="reddit_analytics . staging.stg" id="ent0004" data-source-line="23"><rect x="93.29" y="375.267" width="295.411" height="156.375" fill="#F1F1F1" style="stroke:#181818;stroke-width:0.5;" rx="2.5" ry="2.5"/><text x="180.135" y="393.262" fill="#000" font-size="14" textLength="121.721">stg_reddit__posts</text><text x="216.311" y="409.559" fill="#000" font-size="14" textLength="49.369">«view»</text><line x1="94.29" y1="417.861" x2="387.701" y2="417.861" style="stroke:#181818;stroke-width:0.5;"/><g data-visibility-modifier="IE_MANDATORY"><ellipse cx="104.29" cy="431.509" rx="3" ry="3" fill="#000" style="stroke:#000;stroke-width:1;"/></g><text x="113.29" y="434.856" fill="#000" font-size="14" textLength="50.012">post_id</text><line x1="94.29" y1="442.158" x2="387.701" y2="442.158" style="stroke:#181818;stroke-width:1;"/><text x="99.29" y="459.153" fill="#000" font-size="14" textLength="277.847">author_id (salted hash), title, body, flair</text><text x="99.29" y="475.449" fill="#000" font-size="14" textLength="255.91">score, num_comments, upvote_ratio</text><text x="99.29" y="491.746" fill="#000" font-size="14" textLength="283.411">removal_reason, is_removed_at_capture</text><text x="99.29" y="508.043" fill="#000" font-size="14" textLength="263.696">later_removal_type, is_removed_later</text><text x="99.29" y="524.34" fill="#000" font-size="14" textLength="162.675">posted_at, retrieved_at</text></g><!--class tools--><g class="entity" data-qualified-name="reddit_analytics . seeds.tools" id="ent0006" data-source-line="35"><rect x="462.46" y="391.557" width="181.073" height="123.781" fill="#F1F1F1" style="stroke:#181818;stroke-width:0.5;" rx="2.5" ry="2.5"/><text x="536.095" y="409.552" fill="#000" font-size="14" textLength="33.804">tools</text><text x="527.728" y="425.849" fill="#000" font-size="14" textLength="50.538">«seed»</text><line x1="463.46" y1="434.151" x2="642.533" y2="434.151" style="stroke:#181818;stroke-width:0.5;"/><g data-visibility-modifier="IE_MANDATORY"><ellipse cx="473.46" cy="447.799" rx="3" ry="3" fill="#000" style="stroke:#000;stroke-width:1;"/></g><text x="482.46" y="451.146" fill="#000" font-size="14" textLength="26.51">tool</text><line x1="463.46" y1="458.448" x2="642.533" y2="458.448" style="stroke:#181818;stroke-width:1;"/><text x="468.46" y="475.443" fill="#000" font-size="14" textLength="61.872">category</text><text x="468.46" y="491.739" fill="#000" font-size="14" textLength="107.215">pattern (regex)</text><text x="468.46" y="508.036" fill="#000" font-size="14" textLength="169.073">exclude_pattern (regex)</text></g><!--class fptm--><g class="entity" data-qualified-name="reddit_analytics . mart  .SELECT granted to analyst..fptm" id="ent0008" data-source-line="45"><rect x="187.36" y="631.637" width="303.272" height="140.078" fill="#F1F1F1" style="stroke:#181818;stroke-width:0.5;" rx="2.5" ry="2.5"/><text x="258.448" y="649.632" fill="#000" font-size="14" textLength="161.096">fct_post_tool_mentions</text><line x1="188.36" y1="657.934" x2="489.632" y2="657.934" style="stroke:#181818;stroke-width:0.5;"/><g data-visibility-modifier="IE_MANDATORY"><ellipse cx="198.36" cy="671.582" rx="3" ry="3" fill="#000" style="stroke:#000;stroke-width:1;"/></g><text x="207.36" y="674.929" fill="#000" font-size="14" textLength="50.012">post_id</text><g data-visibility-modifier="IE_MANDATORY"><ellipse cx="198.36" cy="687.879" rx="3" ry="3" fill="#000" style="stroke:#000;stroke-width:1;"/></g><text x="207.36" y="691.226" fill="#000" font-size="14" textLength="26.51">tool</text><line x1="188.36" y1="698.527" x2="489.632" y2="698.527" style="stroke:#181818;stroke-width:1;"/><text x="193.36" y="715.523" fill="#000" font-size="14" textLength="136.09">category, is_in_title</text><text x="193.36" y="731.819" fill="#000" font-size="14" textLength="104.747">posted_at, flair</text><text x="193.36" y="748.116" fill="#000" font-size="14" textLength="291.272">is_removed_at_capture, is_removed_later</text><text x="193.36" y="764.413" fill="#000" font-size="14" textLength="159.018">score, num_comments</text></g><!--class fp--><g class="entity" data-qualified-name="reddit_analytics . mart  .SELECT granted to analyst..fp" id="ent0009" data-source-line="54"><rect x="22.36" y="848.717" width="303.272" height="156.375" fill="#F1F1F1" style="stroke:#181818;stroke-width:0.5;" rx="2.5" ry="2.5"/><text x="142.674" y="866.712" fill="#000" font-size="14" textLength="62.645">fct_posts</text><line x1="23.36" y1="875.014" x2="324.632" y2="875.014" style="stroke:#181818;stroke-width:0.5;"/><g data-visibility-modifier="IE_MANDATORY"><ellipse cx="33.36" cy="888.662" rx="3" ry="3" fill="#000" style="stroke:#000;stroke-width:1;"/></g><text x="42.36" y="892.009" fill="#000" font-size="14" textLength="50.012">post_id</text><line x1="23.36" y1="899.311" x2="324.632" y2="899.311" style="stroke:#181818;stroke-width:1;"/><text x="28.36" y="916.306" fill="#000" font-size="14" textLength="104.747">posted_at, flair</text><text x="28.36" y="932.603" fill="#000" font-size="14" textLength="291.272">is_removed_at_capture, is_removed_later</text><text x="28.36" y="948.899" fill="#000" font-size="14" textLength="255.91">score, num_comments, upvote_ratio</text><text x="28.36" y="965.196" fill="#000" font-size="14" textLength="116.245">tools_mentioned</text><text x="28.36" y="981.493" fill="#000" font-size="14" textLength="232.442">mentions_ai, mentions_ai_in_title</text><text x="28.36" y="997.79" fill="#000" font-size="14" textLength="78.948">(no author)</text></g><!--class mtm--><g class="entity" data-qualified-name="reddit_analytics . mart  .SELECT granted to analyst..mtm" id="ent0010" data-source-line="64"><rect x="360.36" y="856.867" width="323.274" height="140.078" fill="#F1F1F1" style="stroke:#181818;stroke-width:0.5;" rx="2.5" ry="2.5"/><text x="414.089" y="874.862" fill="#000" font-size="14" textLength="215.817">mart_tool_mentions_by_month</text><line x1="361.36" y1="883.164" x2="682.634" y2="883.164" style="stroke:#181818;stroke-width:0.5;"/><g data-visibility-modifier="IE_MANDATORY"><ellipse cx="371.36" cy="896.812" rx="3" ry="3" fill="#000" style="stroke:#000;stroke-width:1;"/></g><text x="380.36" y="900.159" fill="#000" font-size="14" textLength="45.438">month</text><g data-visibility-modifier="IE_MANDATORY"><ellipse cx="371.36" cy="913.109" rx="3" ry="3" fill="#000" style="stroke:#000;stroke-width:1;"/></g><text x="380.36" y="916.456" fill="#000" font-size="14" textLength="26.51">tool</text><line x1="361.36" y1="923.757" x2="682.634" y2="923.757" style="stroke:#181818;stroke-width:1;"/><text x="366.36" y="940.753" fill="#000" font-size="14" textLength="61.872">category</text><text x="366.36" y="957.049" fill="#000" font-size="14" textLength="311.274">posts_mentioning, posts_mentioning_in_title</text><text x="366.36" y="973.346" fill="#000" font-size="14" textLength="109.73">posts_in_month</text><text x="366.36" y="989.643" fill="#000" font-size="14" textLength="179.648">share_pct, title_share_pct</text></g><!--class mai--><g class="entity" data-qualified-name="reddit_analytics . mart  .SELECT granted to analyst..mai" id="ent0011" data-source-line="73"><rect x="66.15" y="1082.097" width="215.699" height="107.484" fill="#F1F1F1" style="stroke:#181818;stroke-width:0.5;" rx="2.5" ry="2.5"/><text x="69.15" y="1100.092" fill="#000" font-size="14" textLength="209.699">mart_ai_share_by_flair_month</text><line x1="67.15" y1="1108.394" x2="280.849" y2="1108.394" style="stroke:#181818;stroke-width:0.5;"/><g data-visibility-modifier="IE_MANDATORY"><ellipse cx="77.15" cy="1122.042" rx="3" ry="3" fill="#000" style="stroke:#000;stroke-width:1;"/></g><text x="86.15" y="1125.389" fill="#000" font-size="14" textLength="45.438">month</text><g data-visibility-modifier="IE_MANDATORY"><ellipse cx="77.15" cy="1138.339" rx="3" ry="3" fill="#000" style="stroke:#000;stroke-width:1;"/></g><text x="86.15" y="1141.686" fill="#000" font-size="14" textLength="27.043">flair</text><line x1="67.15" y1="1148.988" x2="280.849" y2="1148.988" style="stroke:#181818;stroke-width:1;"/><text x="72.15" y="1165.983" fill="#000" font-size="14" textLength="157.562">posts, ai_posts_in_title</text><text x="72.15" y="1182.279" fill="#000" font-size="14" textLength="122.028">ai_title_share_pct</text></g><!--link raw to stg--><g class="link" data-entity-1="ent0002" data-entity-2="ent0004" id="lnk12" data-source-line="82" data-link-type="association"><path d="M241,283.397 C241,316.087 241,336.057 241,366.997" style="stroke:#181818;stroke-width:1;stroke-dasharray:7,7;" fill="none" id="raw-stg" codeLine="82"/><line x1="237" y1="279.397" x2="245" y2="279.397" style="stroke:#181818;stroke-width:1;"/><line x1="237" y1="282.397" x2="245" y2="282.397" style="stroke:#181818;stroke-width:1;"/><line x1="241" y1="283.397" x2="241" y2="275.397" style="stroke:#181818;stroke-width:1;"/><line x1="245" y1="370.997" x2="237" y2="370.997" style="stroke:#181818;stroke-width:1;"/><line x1="245" y1="367.997" x2="237" y2="367.997" style="stroke:#181818;stroke-width:1;"/><line x1="241" y1="366.997" x2="241" y2="374.997" style="stroke:#181818;stroke-width:1;"/><text x="242" y="320.334" fill="#000" font-size="13" textLength="138.874">FINAL, rename, clean</text></g><!--link stg to fptm--><g class="link" data-entity-1="ent0004" data-entity-2="ent0008" id="lnk13" data-source-line="83" data-link-type="crowfoot"><path d="M274.828,539.45 C287.508,571.31 292.466,583.752 304.776,614.692" style="stroke:#181818;stroke-width:1;" fill="none" id="stg-fptm" codeLine="83"/><line x1="269.633" y1="537.212" x2="277.066" y2="534.254" style="stroke:#181818;stroke-width:1;"/><line x1="270.742" y1="540" x2="278.175" y2="537.042" style="stroke:#181818;stroke-width:1;"/><line x1="274.828" y1="539.45" x2="271.87" y2="532.017" style="stroke:#181818;stroke-width:1;"/><line x1="308.473" y1="623.984" x2="317.005" y2="629.199" style="stroke:#181818;stroke-width:1;"/><line x1="308.473" y1="623.984" x2="305.855" y2="633.635" style="stroke:#181818;stroke-width:1;"/><line x1="308.473" y1="623.984" x2="311.43" y2="631.417" style="stroke:#181818;stroke-width:1;"/><ellipse cx="306.254" cy="618.409" rx="4" ry="4" fill="none" style="stroke:#181818;stroke-width:1;"/><text x="291" y="576.704" fill="#000" font-size="13" textLength="46.439">post_id</text></g><!--link tools to fptm--><g class="link" data-entity-1="ent0006" data-entity-2="ent0008" id="lnk14" data-source-line="84" data-link-type="crowfoot"><path d="M494.582,521.675 C464.002,556.855 442.559,581.532 410.889,617.962" style="stroke:#181818;stroke-width:1;" fill="none" id="tools-fptm" codeLine="84"/><line x1="494.187" y1="516.032" x2="500.225" y2="521.28" style="stroke:#181818;stroke-width:1;"/><line x1="492.219" y1="518.296" x2="498.257" y2="523.544" style="stroke:#181818;stroke-width:1;"/><line x1="494.582" y1="521.675" x2="499.83" y2="515.637" style="stroke:#181818;stroke-width:1;"/><line x1="404.329" y1="625.509" x2="403.608" y2="635.483" style="stroke:#181818;stroke-width:1;"/><line x1="404.329" y1="625.509" x2="394.552" y2="627.61" style="stroke:#181818;stroke-width:1;"/><line x1="404.329" y1="625.509" x2="399.08" y2="631.547" style="stroke:#181818;stroke-width:1;"/><ellipse cx="408.265" cy="620.981" rx="4" ry="4" fill="none" style="stroke:#181818;stroke-width:1;"/><text x="453.42" y="576.704" fill="#000" font-size="13" textLength="24.616">tool</text></g><!--link stg to fp--><g class="link" data-entity-1="ent0004" data-entity-2="ent0009" id="lnk15" data-source-line="85" data-link-type="association"><path d="M150.759,538.355 C136.939,555.495 129.68,568.407 122,588.637 C89.68,673.797 112.215,770.795 137.545,840.705" style="stroke:#181818;stroke-width:1;" fill="none" id="stg-fp" codeLine="85"/><line x1="150.155" y1="532.73" x2="156.383" y2="537.751" style="stroke:#181818;stroke-width:1;"/><line x1="148.272" y1="535.065" x2="154.5" y2="540.087" style="stroke:#181818;stroke-width:1;"/><line x1="150.759" y1="538.355" x2="155.78" y2="532.127" style="stroke:#181818;stroke-width:1;"/><line x1="142.668" y1="843.104" x2="135.147" y2="845.829" style="stroke:#181818;stroke-width:1;"/><line x1="141.646" y1="840.283" x2="134.125" y2="843.008" style="stroke:#181818;stroke-width:1;"/><line x1="137.545" y1="840.705" x2="140.27" y2="848.227" style="stroke:#181818;stroke-width:1;"/><text x="123" y="706.244" fill="#000" font-size="13" textLength="46.439">post_id</text></g><!--link fptm to fp--><g class="link" data-entity-1="ent0008" data-entity-2="ent0009" id="lnk16" data-source-line="86" data-link-type="crowfoot"><path d="M277.001,786.562 C259.121,810.752 254.405,817.134 236.065,841.944" style="stroke:#181818;stroke-width:1;stroke-dasharray:7,7;" fill="none" id="fptm-fp" codeLine="86"/><line x1="282.945" y1="778.52" x2="282.875" y2="768.52" style="stroke:#181818;stroke-width:1;"/><line x1="282.945" y1="778.52" x2="292.525" y2="775.653" style="stroke:#181818;stroke-width:1;"/><line x1="282.945" y1="778.52" x2="287.7" y2="772.087" style="stroke:#181818;stroke-width:1;"/><ellipse cx="279.378" cy="783.345" rx="4" ry="4" fill="none" style="stroke:#181818;stroke-width:1;"/><line x1="236.904" y1="847.538" x2="230.471" y2="842.783" style="stroke:#181818;stroke-width:1;"/><line x1="238.688" y1="845.126" x2="232.254" y2="840.37" style="stroke:#181818;stroke-width:1;"/><line x1="236.065" y1="841.944" x2="231.31" y2="848.377" style="stroke:#181818;stroke-width:1;"/><text x="262.45" y="814.784" fill="#000" font-size="13" textLength="48.039">AI flags</text></g><!--link fptm to mtm--><g class="link" data-entity-1="ent0008" data-entity-2="ent0010" id="lnk17" data-source-line="87" data-link-type="crowfoot"><path d="M372.196,788.472 C379.746,804.562 381.28,804.757 392,818.717 C402.24,832.057 408.555,839.398 421.325,851.158" style="stroke:#181818;stroke-width:1;stroke-dasharray:7,7;" fill="none" id="fptm-mtm" codeLine="87"/><line x1="367.948" y1="779.419" x2="359.118" y2="774.726" style="stroke:#181818;stroke-width:1;"/><line x1="367.948" y1="779.419" x2="369.982" y2="769.628" style="stroke:#181818;stroke-width:1;"/><line x1="367.948" y1="779.419" x2="364.55" y2="772.177" style="stroke:#181818;stroke-width:1;"/><ellipse cx="370.497" cy="784.851" rx="4" ry="4" fill="none" style="stroke:#181818;stroke-width:1;"/><line x1="426.977" y1="850.925" x2="421.558" y2="856.81" style="stroke:#181818;stroke-width:1;"/><line x1="424.77" y1="848.893" x2="419.351" y2="854.777" style="stroke:#181818;stroke-width:1;"/><line x1="421.325" y1="851.158" x2="427.21" y2="856.577" style="stroke:#181818;stroke-width:1;"/><text x="393" y="814.784" fill="#000" font-size="13" textLength="141.781">aggregated by month</text></g><!--link tools to mtm--><g class="link" data-entity-1="ent0006" data-entity-2="ent0010" id="lnk18" data-source-line="88" data-link-type="crowfoot"><path d="M552.786,523.827 C552.116,596.357 549.42,712.587 539,818.717 C537.79,830.997 538.727,826.211 536.867,838.771" style="stroke:#181818;stroke-width:1;stroke-dasharray:7,7;" fill="none" id="tools-mtm" codeLine="88"/><line x1="548.823" y1="519.79" x2="556.823" y2="519.864" style="stroke:#181818;stroke-width:1;"/><line x1="548.796" y1="522.79" x2="556.795" y2="522.864" style="stroke:#181818;stroke-width:1;"/><line x1="552.786" y1="523.827" x2="552.86" y2="515.827" style="stroke:#181818;stroke-width:1;"/><line x1="535.402" y1="848.663" x2="540.165" y2="857.456" style="stroke:#181818;stroke-width:1;"/><line x1="535.402" y1="848.663" x2="528.295" y2="855.698" style="stroke:#181818;stroke-width:1;"/><line x1="535.402" y1="848.663" x2="534.23" y2="856.577" style="stroke:#181818;stroke-width:1;"/><ellipse cx="536.281" cy="842.728" rx="4" ry="4" fill="none" style="stroke:#181818;stroke-width:1;"/><text x="552.6" y="706.244" fill="#000" font-size="13" textLength="126.826">every month × tool</text></g><!--link fp to mai--><g class="link" data-entity-1="ent0009" data-entity-2="ent0011" id="lnk19" data-source-line="89" data-link-type="crowfoot"><path d="M174,1023.547 C174,1049.007 174,1050.697 174,1073.887" style="stroke:#181818;stroke-width:1;stroke-dasharray:7,7;" fill="none" id="fp-mai" codeLine="89"/><line x1="174" y1="1013.547" x2="168" y2="1005.547" style="stroke:#181818;stroke-width:1;"/><line x1="174" y1="1013.547" x2="180" y2="1005.547" style="stroke:#181818;stroke-width:1;"/><line x1="174" y1="1013.547" x2="174" y2="1005.547" style="stroke:#181818;stroke-width:1;"/><ellipse cx="174" cy="1019.547" rx="4" ry="4" fill="none" style="stroke:#181818;stroke-width:1;"/><line x1="178" y1="1077.887" x2="170" y2="1077.887" style="stroke:#181818;stroke-width:1;"/><line x1="178" y1="1074.887" x2="170" y2="1074.887" style="stroke:#181818;stroke-width:1;"/><line x1="174" y1="1073.887" x2="174" y2="1081.887" style="stroke:#181818;stroke-width:1;"/><text x="175" y="1048.164" fill="#000" font-size="13" textLength="175.157">aggregated by month, flair</text></g><?plantuml-src jLLTJXin47xFAKPvIgfD3e0G4WMgKb6eW9TAbQp9hhEnyDehUnQ8258FKQa7warwaevdDtyaLFIXJydEVFPyytrZcmnP3HU-D3bQk3Vw0Nv__m6dI0YLBxI5mOar-Tr7tqITmQGnbc0oXs92mrwyCwx6W1N46HR-mRWIfcYZxirCeI4t8RVT_qhJp1UnrwinlyDIGp_eeZ04Wu0FmpuyzG2q8qDpwDS-Kkm3Hk2SP03UWIdW06ueS169Z4RoGwc13AAsKzAFb84rxavDBPgWKa10s73r08U7NyxFZuua57CVU9rhAfNxgkBQCOEcllUaLK0oNb11L_vU5seoLpcIBdsOIpmFcZyBrL2UCOXPwGJphbt5j9TSOJ1jh8LFDrUNGqagwx5WBBRKncFvkTQrnPpndtKezMtGUh063ZEukZuzkuRtNra6nZ_tddUKLEZGpidaKHoCX2Lljwrif59rQ2KgVtE7XydqeoFHc_ChlLDUIRMLrgsC78H1HClzmmpZZDbr9anyCSz0jFzNZT4oCOpUPM2YMigEnBBNr0GjICkQ1xN4qxpMMsX92p1nb-MRveZWRr5Ewo9kwqRUMz4gvJgj9BPIAtrjIhKrBJKICtCywxhKZ-qOwCVSDeLMkxatKAmm4C3WvkpYxEGMoe0kcK4U11RfnO6QvYHsgyHI9H-CT-q9czPKxRNyzPP4S-EKcFvIxhNvUsrynQyzWo92xBQmPFstCVqVTFRChGp0KatTCbXggz1acn_RUWsSxyxIy4MRoTXjbzBLKtb7Cscysd1BecyQlwJRSaE-4xAToAwTul2w0j_lWMSrf-wigrLWNmFSRvjdxkrDlD41chqTh9tQS95bvxrMVDOKERgF1n-STFSk5kFnOY6tsG7qFvnV7b-aYy1XnQxoauIktql9nM8qya_j6JXetnqUfNwlFTeliYcuNiRRyn1kBXBSivVARUhuF7LLnkrSrMw7PSadFZqYwJbjzLaL7e-vS0Vakojq0FZr4reQN62v7UkvVxjk-lj_0000?></g></svg>