<svg xmlns="http://www.w3.org/2000/svg" xmlns:xlink="http://www.w3.org/1999/xlink" version="1.1" data-diagram-type="CLASS" style="width:1419px;height:1460px;background:#FFFFFF;" width="1419px" height="1460px" viewBox="0 0 1419 1460" zoomAndPan="magnify" preserveAspectRatio="none" contentStyleType="text/css"><?plantuml 1.2026.8?><defs/><g font-family="sans-serif" lengthAdjust="spacing"><g class="title" data-source-line="1"><text x="497.066" y="22.995" fill="#000" font-size="14" textLength="417.867" font-weight="700">Logical view — Data model (ClickHouse, built by dbt)</text></g><!--cluster reddit (raw)--><g class="cluster" data-qualified-name="reddit .raw." id="ent0001" data-source-line="6"><path d="M631.5,43.297 L727.39,43.297 A3.75,3.75 0 0 1 729.89,45.797 L736.89,65.594 L1000.5,65.594 A2.5,2.5 0 0 1 1003,68.094 L1003,288.767 A2.5,2.5 0 0 1 1000.5,291.267 L631.5,291.267 A2.5,2.5 0 0 1 629,288.767 L629,45.797 A2.5,2.5 0 0 1 631.5,43.297" style="stroke:#000;stroke-width:1.5;" fill="none"/><line x1="629" y1="65.594" x2="736.89" y2="65.594" style="stroke:#000;stroke-width:1.5;"/><text x="633" y="58.292" fill="#000" font-size="14" textLength="94.89" font-weight="700">reddit (raw)</text></g><!--cluster rawc--><g class="cluster" data-qualified-name="rawc" id="ent0003" data-source-line="22"><path d="M1032.5,340.267 L1133.264,340.267 A3.75,3.75 0 0 1 1135.764,342.767 L1142.764,362.564 L1401.5,362.564 A2.5,2.5 0 0 1 1404,365.064 L1404,553.137 A2.5,2.5 0 0 1 1401.5,555.637 L1032.5,555.637 A2.5,2.5 0 0 1 1030,553.137 L1030,342.767 A2.5,2.5 0 0 1 1032.5,340.267" style="stroke:#000;stroke-width:1.5;" fill="none"/><line x1="1030" y1="362.564" x2="1142.764" y2="362.564" style="stroke:#000;stroke-width:1.5;"/><text x="1034" y="355.262" fill="#000" font-size="14" textLength="94.89" font-weight="700">reddit (raw)</text></g><!--cluster reddit_analytics — staging--><g class="cluster" data-qualified-name="reddit_analytics . staging" id="ent0005" data-source-line="36"><path d="M654.5,344.267 L864.372,344.267 A3.75,3.75 0 0 1 866.872,346.767 L873.872,366.564 L1003.5,366.564 A2.5,2.5 0 0 1 1006,369.064 L1006,785.067 A2.5,2.5 0 0 1 1003.5,787.567 L654.5,787.567 A2.5,2.5 0 0 1 652,785.067 L652,346.767 A2.5,2.5 0 0 1 654.5,344.267" style="stroke:#000;stroke-width:1.5;" fill="none"/><line x1="652" y1="366.564" x2="873.872" y2="366.564" style="stroke:#000;stroke-width:1.5;"/><text x="656" y="359.262" fill="#000" font-size="14" textLength="208.872" font-weight="700">reddit_analytics — staging</text></g><!--cluster reddit_analytics — seeds--><g class="cluster" data-qualified-name="reddit_analytics . seeds" id="ent0008" data-source-line="56"><path d="M319.5,604.637 L515.769,604.637 A3.75,3.75 0 0 1 518.269,607.137 L525.269,626.934 L528.5,626.934 A2.5,2.5 0 0 1 531,629.434 L531,776.917 A2.5,2.5 0 0 1 528.5,779.417 L319.5,779.417 A2.5,2.5 0 0 1 317,776.917 L317,607.137 A2.5,2.5 0 0 1 319.5,604.637" style="stroke:#000;stroke-width:1.5;" fill="none"/><line x1="317" y1="626.934" x2="525.269" y2="626.934" style="stroke:#000;stroke-width:1.5;"/><text x="321" y="619.632" fill="#000" font-size="14" textLength="195.269" font-weight="700">reddit_analytics — seeds</text></g><!--cluster reddit_analytics — mart  (SELECT granted to analyst)--><g class="cluster" data-qualified-name="reddit_analytics . mart  .SELECT granted to analyst." id="ent0010" data-source-line="66"><path d="M8.5,836.567 L428.516,836.567 A3.75,3.75 0 0 1 431.016,839.067 L438.016,858.864 L1059.5,858.864 A2.5,2.5 0 0 1 1062,861.364 L1062,1443.007 A2.5,2.5 0 0 1 1059.5,1445.507 L8.5,1445.507 A2.5,2.5 0 0 1 6,1443.007 L6,839.067 A2.5,2.5 0 0 1 8.5,836.567" style="stroke:#000;stroke-width:1.5;" fill="none"/><line x1="6" y1="858.864" x2="438.016" y2="858.864" style="stroke:#000;stroke-width:1.5;"/><text x="10" y="851.562" fill="#000" font-size="14" textLength="419.016" font-weight="700">reddit_analytics — mart  (SELECT granted to analyst)</text></g><!--class raw--><g class="entity" data-qualified-name="reddit .raw..raw" id="ent0002" data-source-line="7"><rect x="645.11" y="78.297" width="341.772" height="196.969" fill="#F1F1F1" style="stroke:#181818;stroke-width:0.5;" rx="2.5" ry="2.5"/><text x="797.232" y="96.292" fill="#000" font-size="14" textLength="37.529">posts</text><line x1="646.11" y1="104.594" x2="985.882" y2="104.594" style="stroke:#181818;stroke-width:0.5;"/><g data-visibility-modifier="IE_MANDATORY"><ellipse cx="656.11" cy="118.242" rx="3" ry="3" fill="#000" style="stroke:#000;stroke-width:1;"/></g><text x="665.11" y="121.589" fill="#000" font-size="14" textLength="68.175">id : String</text><line x1="646.11" y1="128.891" x2="985.882" y2="128.891" style="stroke:#181818;stroke-width:1;"/><text x="651.11" y="145.886" fill="#000" font-size="14" textLength="191.454">title, selftext, link_flair_text</text><text x="651.11" y="162.183" fill="#000" font-size="14" textLength="84.417">author «PII»</text><text x="651.11" y="178.479" fill="#000" font-size="14" textLength="255.91">score, num_comments, upvote_ratio</text><text x="651.11" y="194.776" fill="#000" font-size="14" textLength="155.401">removed_by_category</text><text x="651.11" y="211.073" fill="#000" font-size="14" textLength="179.936">created_utc, retrieved_on</text><text x="651.11" y="227.37" fill="#000" font-size="14" textLength="157.097">raw : String (full JSON)</text><text x="651.11" y="243.667" fill="#000" font-size="14" textLength="75.489">_loaded_at</text><line x1="646.11" y1="250.969" x2="985.882" y2="250.969" style="stroke:#181818;stroke-width:1;stroke-dasharray:1,2;"/><text x="651.11" y="267.964" fill="#000" font-size="14" textLength="329.772">ReplacingMergeTree(_loaded_at), ORDER BY id</text></g><!--class rawcom--><g class="entity" data-qualified-name="rawc.rawcom" id="ent0004" data-source-line="23"><rect x="1046.11" y="375.267" width="341.772" height="164.375" fill="#F1F1F1" style="stroke:#181818;stroke-width:0.5;" rx="2.5" ry="2.5"/><text x="1180.092" y="393.262" fill="#000" font-size="14" textLength="73.808">comments</text><line x1="1047.11" y1="401.564" x2="1386.882" y2="401.564" style="stroke:#181818;stroke-width:0.5;"/><g data-visibility-modifier="IE_MANDATORY"><ellipse cx="1057.11" cy="415.212" rx="3" ry="3" fill="#000" style="stroke:#000;stroke-width:1;"/></g><text x="1066.11" y="418.559" fill="#000" font-size="14" textLength="68.175">id : String</text><line x1="1047.11" y1="425.861" x2="1386.882" y2="425.861" style="stroke:#181818;stroke-width:1;"/><text x="1052.11" y="442.856" fill="#000" font-size="14" textLength="162.935">link_id, parent_id, body</text><text x="1052.11" y="459.153" fill="#000" font-size="14" textLength="84.417">author «PII»</text><text x="1052.11" y="475.449" fill="#000" font-size="14" textLength="250.756">score, controversiality, is_submitter</text><text x="1052.11" y="491.746" fill="#000" font-size="14" textLength="179.936">created_utc, retrieved_on</text><text x="1052.11" y="508.043" fill="#000" font-size="14" textLength="157.097">raw : String (full JSON)</text><line x1="1047.11" y1="515.345" x2="1386.882" y2="515.345" style="stroke:#181818;stroke-width:1;stroke-dasharray:1,2;"/><text x="1052.11" y="532.34" fill="#000" font-size="14" textLength="329.772">ReplacingMergeTree(_loaded_at), ORDER BY id</text></g><!--class stgc--><g class="entity" data-qualified-name="reddit_analytics . staging.stgc" id="ent0006" data-source-line="37"><rect x="668.24" y="631.487" width="321.518" height="140.078" fill="#F1F1F1" style="stroke:#181818;stroke-width:0.5;" rx="2.5" ry="2.5"/><text x="749.999" y="649.482" fill="#000" font-size="14" textLength="157.999">stg_reddit__comments</text><text x="804.314" y="665.779" fill="#000" font-size="14" textLength="49.369">«view»</text><line x1="669.24" y1="674.081" x2="988.758" y2="674.081" style="stroke:#181818;stroke-width:0.5;"/><g data-visibility-modifier="IE_MANDATORY"><ellipse cx="679.24" cy="687.729" rx="3" ry="3" fill="#000" style="stroke:#000;stroke-width:1;"/></g><text x="688.24" y="691.076" fill="#000" font-size="14" textLength="86.29">comment_id</text><line x1="669.24" y1="698.378" x2="988.758" y2="698.378" style="stroke:#181818;stroke-width:1;"/><text x="674.24" y="715.373" fill="#000" font-size="14" textLength="288.716">post_id, parent_comment_id, is_top_level</text><text x="674.24" y="731.669" fill="#000" font-size="14" textLength="294.547">author_id (salted hash), is_automoderator</text><text x="674.24" y="747.966" fill="#000" font-size="14" textLength="309.518">body, is_body_removed, later_removal_type</text><text x="674.24" y="764.263" fill="#000" font-size="14" textLength="151.908">score, commented_at</text></g><!--class stg--><g class="entity" data-qualified-name="reddit_analytics . staging.stg" id="ent0007" data-source-line="45"><rect x="668.29" y="379.267" width="295.411" height="156.375" fill="#F1F1F1" style="stroke:#181818;stroke-width:0.5;" rx="2.5" ry="2.5"/><text x="755.135" y="397.262" fill="#000" font-size="14" textLength="121.721">stg_reddit__posts</text><text x="791.311" y="413.559" fill="#000" font-size="14" textLength="49.369">«view»</text><line x1="669.29" y1="421.861" x2="962.701" y2="421.861" style="stroke:#181818;stroke-width:0.5;"/><g data-visibility-modifier="IE_MANDATORY"><ellipse cx="679.29" cy="435.509" rx="3" ry="3" fill="#000" style="stroke:#000;stroke-width:1;"/></g><text x="688.29" y="438.856" fill="#000" font-size="14" textLength="50.012">post_id</text><line x1="669.29" y1="446.158" x2="962.701" y2="446.158" style="stroke:#181818;stroke-width:1;"/><text x="674.29" y="463.153" fill="#000" font-size="14" textLength="277.847">author_id (salted hash), title, body, flair</text><text x="674.29" y="479.449" fill="#000" font-size="14" textLength="255.91">score, num_comments, upvote_ratio</text><text x="674.29" y="495.746" fill="#000" font-size="14" textLength="283.411">removal_reason, is_removed_at_capture</text><text x="674.29" y="512.043" fill="#000" font-size="14" textLength="263.696">later_removal_type, is_removed_later</text><text x="674.29" y="528.34" fill="#000" font-size="14" textLength="162.675">posted_at, retrieved_at</text></g><!--class tools--><g class="entity" data-qualified-name="reddit_analytics . seeds.tools" id="ent0009" data-source-line="57"><rect x="333.46" y="639.637" width="181.073" height="123.781" fill="#F1F1F1" style="stroke:#181818;stroke-width:0.5;" rx="2.5" ry="2.5"/><text x="407.095" y="657.632" fill="#000" font-size="14" textLength="33.804">tools</text><text x="398.728" y="673.929" fill="#000" font-size="14" textLength="50.538">«seed»</text><line x1="334.46" y1="682.231" x2="513.533" y2="682.231" style="stroke:#181818;stroke-width:0.5;"/><g data-visibility-modifier="IE_MANDATORY"><ellipse cx="344.46" cy="695.879" rx="3" ry="3" fill="#000" style="stroke:#000;stroke-width:1;"/></g><text x="353.46" y="699.226" fill="#000" font-size="14" textLength="26.51">tool</text><line x1="334.46" y1="706.528" x2="513.533" y2="706.528" style="stroke:#181818;stroke-width:1;"/><text x="339.46" y="723.523" fill="#000" font-size="14" textLength="61.872">category</text><text x="339.46" y="739.819" fill="#000" font-size="14" textLength="107.215">pattern (regex)</text><text x="339.46" y="756.116" fill="#000" font-size="14" textLength="169.073">exclude_pattern (regex)</text></g><!--class fctm--><g class="entity" data-qualified-name="reddit_analytics . mart  .SELECT granted to analyst..fctm" id="ent0011" data-source-line="67"><rect x="754.89" y="887.867" width="254.225" height="107.484" fill="#F1F1F1" style="stroke:#181818;stroke-width:0.5;" rx="2.5" ry="2.5"/><text x="783.315" y="905.862" fill="#000" font-size="14" textLength="197.374">fct_comment_tool_mentions</text><line x1="755.89" y1="914.164" x2="1008.115" y2="914.164" style="stroke:#181818;stroke-width:0.5;"/><g data-visibility-modifier="IE_MANDATORY"><ellipse cx="765.89" cy="927.812" rx="3" ry="3" fill="#000" style="stroke:#000;stroke-width:1;"/></g><text x="774.89" y="931.159" fill="#000" font-size="14" textLength="86.29">comment_id</text><g data-visibility-modifier="IE_MANDATORY"><ellipse cx="765.89" cy="944.109" rx="3" ry="3" fill="#000" style="stroke:#000;stroke-width:1;"/></g><text x="774.89" y="947.456" fill="#000" font-size="14" textLength="26.51">tool</text><line x1="755.89" y1="954.758" x2="1008.115" y2="954.758" style="stroke:#181818;stroke-width:1;"/><text x="760.89" y="971.753" fill="#000" font-size="14" textLength="120.784">post_id, category</text><text x="760.89" y="988.049" fill="#000" font-size="14" textLength="242.225">commented_at, is_top_level, score</text></g><!--class mctm--><g class="entity" data-qualified-name="reddit_analytics . mart  .SELECT granted to analyst..mctm" id="ent0012" data-source-line="74"><rect x="718.35" y="1104.947" width="327.308" height="123.781" fill="#F1F1F1" style="stroke:#181818;stroke-width:0.5;" rx="2.5" ry="2.5"/><text x="737.338" y="1122.942" fill="#000" font-size="14" textLength="289.331">mart_comment_tool_mentions_by_month</text><line x1="719.35" y1="1131.244" x2="1044.658" y2="1131.244" style="stroke:#181818;stroke-width:0.5;"/><g data-visibility-modifier="IE_MANDATORY"><ellipse cx="729.35" cy="1144.892" rx="3" ry="3" fill="#000" style="stroke:#000;stroke-width:1;"/></g><text x="738.35" y="1148.239" fill="#000" font-size="14" textLength="45.438">month</text><g data-visibility-modifier="IE_MANDATORY"><ellipse cx="729.35" cy="1161.189" rx="3" ry="3" fill="#000" style="stroke:#000;stroke-width:1;"/></g><text x="738.35" y="1164.536" fill="#000" font-size="14" textLength="26.51">tool</text><line x1="719.35" y1="1171.838" x2="1044.658" y2="1171.838" style="stroke:#181818;stroke-width:1;"/><text x="724.35" y="1188.833" fill="#000" font-size="14" textLength="61.872">category</text><text x="724.35" y="1205.129" fill="#000" font-size="14" textLength="315.308">comments_mentioning, comments_in_month</text><text x="724.35" y="1221.426" fill="#000" font-size="14" textLength="68.188">share_pct</text></g><!--class fptm--><g class="entity" data-qualified-name="reddit_analytics . mart  .SELECT granted to analyst..fptm" id="ent0013" data-source-line="82"><rect x="416.36" y="871.567" width="303.272" height="140.078" fill="#F1F1F1" style="stroke:#181818;stroke-width:0.5;" rx="2.5" ry="2.5"/><text x="487.448" y="889.562" fill="#000" font-size="14" textLength="161.096">fct_post_tool_mentions</text><line x1="417.36" y1="897.864" x2="718.632" y2="897.864" style="stroke:#181818;stroke-width:0.5;"/><g data-visibility-modifier="IE_MANDATORY"><ellipse cx="427.36" cy="911.512" rx="3" ry="3" fill="#000" style="stroke:#000;stroke-width:1;"/></g><text x="436.36" y="914.859" fill="#000" font-size="14" textLength="50.012">post_id</text><g data-visibility-modifier="IE_MANDATORY"><ellipse cx="427.36" cy="927.809" rx="3" ry="3" fill="#000" style="stroke:#000;stroke-width:1;"/></g><text x="436.36" y="931.156" fill="#000" font-size="14" textLength="26.51">tool</text><line x1="417.36" y1="938.458" x2="718.632" y2="938.458" style="stroke:#181818;stroke-width:1;"/><text x="422.36" y="955.453" fill="#000" font-size="14" textLength="136.09">category, is_in_title</text><text x="422.36" y="971.749" fill="#000" font-size="14" textLength="104.747">posted_at, flair</text><text x="422.36" y="988.046" fill="#000" font-size="14" textLength="291.272">is_removed_at_capture, is_removed_later</text><text x="422.36" y="1004.343" fill="#000" font-size="14" textLength="159.018">score, num_comments</text></g><!--class fp--><g class="entity" data-qualified-name="reddit_analytics . mart  .SELECT granted to analyst..fp" id="ent0014" data-source-line="91"><rect x="22.36" y="1088.647" width="303.272" height="156.375" fill="#F1F1F1" style="stroke:#181818;stroke-width:0.5;" rx="2.5" ry="2.5"/><text x="142.674" y="1106.642" fill="#000" font-size="14" textLength="62.645">fct_posts</text><line x1="23.36" y1="1114.944" x2="324.632" y2="1114.944" style="stroke:#181818;stroke-width:0.5;"/><g data-visibility-modifier="IE_MANDATORY"><ellipse cx="33.36" cy="1128.592" rx="3" ry="3" fill="#000" style="stroke:#000;stroke-width:1;"/></g><text x="42.36" y="1131.939" fill="#000" font-size="14" textLength="50.012">post_id</text><line x1="23.36" y1="1139.241" x2="324.632" y2="1139.241" style="stroke:#181818;stroke-width:1;"/><text x="28.36" y="1156.236" fill="#000" font-size="14" textLength="104.747">posted_at, flair</text><text x="28.36" y="1172.533" fill="#000" font-size="14" textLength="291.272">is_removed_at_capture, is_removed_later</text><text x="28.36" y="1188.829" fill="#000" font-size="14" textLength="255.91">score, num_comments, upvote_ratio</text><text x="28.36" y="1205.126" fill="#000" font-size="14" textLength="116.245">tools_mentioned</text><text x="28.36" y="1221.423" fill="#000" font-size="14" textLength="232.442">mentions_ai, mentions_ai_in_title</text><text x="28.36" y="1237.72" fill="#000" font-size="14" textLength="78.948">(no author)</text></g><!--class mtm--><g class="entity" data-qualified-name="reddit_analytics . mart  .SELECT granted to analyst..mtm" id="ent0015" data-source-line="101"><rect x="360.36" y="1096.797" width="323.274" height="140.078" fill="#F1F1F1" style="stroke:#181818;stroke-width:0.5;" rx="2.5" ry="2.5"/><text x="414.089" y="1114.792" fill="#000" font-size="14" textLength="215.817">mart_tool_mentions_by_month</text><line x1="361.36" y1="1123.094" x2="682.634" y2="1123.094" style="stroke:#181818;stroke-width:0.5;"/><g data-visibility-modifier="IE_MANDATORY"><ellipse cx="371.36" cy="1136.742" rx="3" ry="3" fill="#000" style="stroke:#000;stroke-width:1;"/></g><text x="380.36" y="1140.089" fill="#000" font-size="14" textLength="45.438">month</text><g data-visibility-modifier="IE_MANDATORY"><ellipse cx="371.36" cy="1153.039" rx="3" ry="3" fill="#000" style="stroke:#000;stroke-width:1;"/></g><text x="380.36" y="1156.386" fill="#000" font-size="14" textLength="26.51">tool</text><line x1="361.36" y1="1163.688" x2="682.634" y2="1163.688" style="stroke:#181818;stroke-width:1;"/><text x="366.36" y="1180.683" fill="#000" font-size="14" textLength="61.872">category</text><text x="366.36" y="1196.979" fill="#000" font-size="14" textLength="311.274">posts_mentioning, posts_mentioning_in_title</text><text x="366.36" y="1213.276" fill="#000" font-size="14" textLength="109.73">posts_in_month</text><text x="366.36" y="1229.573" fill="#000" font-size="14" textLength="179.648">share_pct, title_share_pct</text></g><!--class mai--><g class="entity" data-qualified-name="reddit_analytics . mart  .SELECT granted to analyst..mai" id="ent0016" data-source-line="110"><rect x="66.15" y="1322.027" width="215.699" height="107.484" fill="#F1F1F1" style="stroke:#181818;stroke-width:0.5;" rx="2.5" ry="2.5"/><text x="69.15" y="1340.022" fill="#000" font-size="14" textLength="209.699">mart_ai_share_by_flair_month</text><line x1="67.15" y1="1348.324" x2="280.849" y2="1348.324" style="stroke:#181818;stroke-width:0.5;"/><g data-visibility-modifier="IE_MANDATORY"><ellipse cx="77.15" cy="1361.972" rx="3" ry="3" fill="#000" style="stroke:#000;stroke-width:1;"/></g><text x="86.15" y="1365.319" fill="#000" font-size="14" textLength="45.438">month</text><g data-visibility-modifier="IE_MANDATORY"><ellipse cx="77.15" cy="1378.269" rx="3" ry="3" fill="#000" style="stroke:#000;stroke-width:1;"/></g><text x="86.15" y="1381.616" fill="#000" font-size="14" textLength="27.043">flair</text><line x1="67.15" y1="1388.918" x2="280.849" y2="1388.918" style="stroke:#181818;stroke-width:1;"/><text x="72.15" y="1405.913" fill="#000" font-size="14" textLength="157.562">posts, ai_posts_in_title</text><text x="72.15" y="1422.209" fill="#000" font-size="14" textLength="122.028">ai_title_share_pct</text></g><!--link raw to stg--><g class="link" data-entity-1="ent0002" data-entity-2="ent0007" id="lnk17" data-source-line="119" data-link-type="association"><path d="M816,283.637 C816,317.517 816,338.987 816,370.997" style="stroke:#181818;stroke-width:1;stroke-dasharray:7,7;" fill="none" id="raw-stg" codeLine="119"/><line x1="812" y1="279.637" x2="820" y2="279.637" style="stroke:#181818;stroke-width:1;"/><line x1="812" y1="282.637" x2="820" y2="282.637" style="stroke:#181818;stroke-width:1;"/><line x1="816" y1="283.637" x2="816" y2="275.637" style="stroke:#181818;stroke-width:1;"/><line x1="820" y1="374.997" x2="812" y2="374.997" style="stroke:#181818;stroke-width:1;"/><line x1="820" y1="371.997" x2="812" y2="371.997" style="stroke:#181818;stroke-width:1;"/><line x1="816" y1="370.997" x2="816" y2="378.997" style="stroke:#181818;stroke-width:1;"/><text x="817" y="320.334" fill="#000" font-size="13" textLength="138.874">FINAL, rename, clean</text></g><!--link stg to fptm--><g class="link" data-entity-1="ent0007" data-entity-2="ent0013" id="lnk18" data-source-line="120" data-link-type="crowfoot"><path d="M661.347,534.111 C635.997,552.601 619.14,570.217 603,596.637 C575.74,641.267 569.635,766.509 568.355,853.439" style="stroke:#181818;stroke-width:1;" fill="none" id="stg-fptm" codeLine="120"/><line x1="662.221" y1="528.522" x2="666.935" y2="534.986" style="stroke:#181818;stroke-width:1;"/><line x1="659.797" y1="530.29" x2="664.512" y2="536.754" style="stroke:#181818;stroke-width:1;"/><line x1="661.347" y1="534.111" x2="667.81" y2="529.397" style="stroke:#181818;stroke-width:1;"/><line x1="568.208" y1="863.438" x2="574.089" y2="871.525" style="stroke:#181818;stroke-width:1;"/><line x1="568.208" y1="863.438" x2="562.091" y2="871.349" style="stroke:#181818;stroke-width:1;"/><line x1="568.208" y1="863.438" x2="568.09" y2="871.437" style="stroke:#181818;stroke-width:1;"/><ellipse cx="568.296" cy="857.438" rx="4" ry="4" fill="none" style="stroke:#181818;stroke-width:1;"/><text x="604" y="706.094" fill="#000" font-size="13" textLength="46.439">post_id</text></g><!--link tools to fptm--><g class="link" data-entity-1="ent0009" data-entity-2="ent0013" id="lnk19" data-source-line="121" data-link-type="crowfoot"><path d="M436.622,771.618 C441.462,790.548 446.35,803.217 456,820.567 C465.91,838.377 467.105,842.115 480.855,857.685" style="stroke:#181818;stroke-width:1;" fill="none" id="tools-fptm" codeLine="121"/><line x1="431.756" y1="768.733" x2="439.506" y2="766.751" style="stroke:#181818;stroke-width:1;"/><line x1="432.499" y1="771.64" x2="440.249" y2="769.658" style="stroke:#181818;stroke-width:1;"/><line x1="436.622" y1="771.618" x2="434.64" y2="763.867" style="stroke:#181818;stroke-width:1;"/><line x1="487.474" y1="865.18" x2="497.267" y2="867.205" style="stroke:#181818;stroke-width:1;"/><line x1="487.474" y1="865.18" x2="488.273" y2="875.149" style="stroke:#181818;stroke-width:1;"/><line x1="487.474" y1="865.18" x2="492.77" y2="871.177" style="stroke:#181818;stroke-width:1;"/><ellipse cx="483.503" cy="860.683" rx="4" ry="4" fill="none" style="stroke:#181818;stroke-width:1;"/><text x="457" y="816.634" fill="#000" font-size="13" textLength="24.616">tool</text></g><!--link stg to fp--><g class="link" data-entity-1="ent0007" data-entity-2="ent0014" id="lnk20" data-source-line="122" data-link-type="association"><path d="M659.91,467.914 C551.71,481.224 415.3,513.627 317,596.637 C172.41,718.757 162.017,955.334 167.387,1080.364" style="stroke:#181818;stroke-width:1;" fill="none" id="stg-fp" codeLine="122"/><line x1="663.392" y1="463.455" x2="664.368" y2="471.395" style="stroke:#181818;stroke-width:1;"/><line x1="660.414" y1="463.821" x2="661.391" y2="471.762" style="stroke:#181818;stroke-width:1;"/><line x1="659.91" y1="467.914" x2="667.85" y2="466.937" style="stroke:#181818;stroke-width:1;"/><line x1="171.555" y1="1084.189" x2="163.562" y2="1084.532" style="stroke:#181818;stroke-width:1;"/><line x1="171.426" y1="1081.192" x2="163.433" y2="1081.535" style="stroke:#181818;stroke-width:1;"/><line x1="167.387" y1="1080.364" x2="167.73" y2="1088.357" style="stroke:#181818;stroke-width:1;"/><text x="195.93" y="816.634" fill="#000" font-size="13" textLength="46.439">post_id</text></g><!--link fptm to fp--><g class="link" data-entity-1="ent0013" data-entity-2="ent0014" id="lnk21" data-source-line="123" data-link-type="crowfoot"><path d="M429.839,1020.889 C387.139,1045.079 361.59,1059.553 317.81,1084.363" style="stroke:#181818;stroke-width:1;stroke-dasharray:7,7;" fill="none" id="fptm-fp" codeLine="123"/><line x1="438.539" y1="1015.96" x2="442.543" y2="1006.796" style="stroke:#181818;stroke-width:1;"/><line x1="438.539" y1="1015.96" x2="448.457" y2="1017.237" style="stroke:#181818;stroke-width:1;"/><line x1="438.539" y1="1015.96" x2="445.5" y2="1012.017" style="stroke:#181818;stroke-width:1;"/><ellipse cx="433.319" cy="1018.918" rx="4" ry="4" fill="none" style="stroke:#181818;stroke-width:1;"/><line x1="316.302" y1="1089.815" x2="312.358" y2="1082.855" style="stroke:#181818;stroke-width:1;"/><line x1="318.912" y1="1088.336" x2="314.968" y2="1081.376" style="stroke:#181818;stroke-width:1;"/><line x1="317.81" y1="1084.363" x2="310.85" y2="1088.307" style="stroke:#181818;stroke-width:1;"/><text x="383.81" y="1054.714" fill="#000" font-size="13" textLength="48.039">AI flags</text></g><!--link fptm to mtm--><g class="link" data-entity-1="ent0013" data-entity-2="ent0015" id="lnk22" data-source-line="124" data-link-type="crowfoot"><path d="M550.067,1029.646 C544.527,1056.526 543.445,1061.762 537.905,1088.632" style="stroke:#181818;stroke-width:1;stroke-dasharray:7,7;" fill="none" id="fptm-mtm" codeLine="124"/><line x1="552.085" y1="1019.852" x2="547.824" y2="1010.806" style="stroke:#181818;stroke-width:1;"/><line x1="552.085" y1="1019.852" x2="559.576" y2="1013.228" style="stroke:#181818;stroke-width:1;"/><line x1="552.085" y1="1019.852" x2="553.7" y2="1012.017" style="stroke:#181818;stroke-width:1;"/><ellipse cx="550.874" cy="1025.729" rx="4" ry="4" fill="none" style="stroke:#181818;stroke-width:1;"/><line x1="541.015" y1="1093.357" x2="533.18" y2="1091.742" style="stroke:#181818;stroke-width:1;"/><line x1="541.621" y1="1090.419" x2="533.786" y2="1088.803" style="stroke:#181818;stroke-width:1;"/><line x1="537.905" y1="1088.632" x2="536.29" y2="1096.467" style="stroke:#181818;stroke-width:1;"/><text x="547.38" y="1054.714" fill="#000" font-size="13" textLength="141.781">aggregated by month</text></g><!--link tools to mtm--><g class="link" data-entity-1="ent0009" data-entity-2="ent0015" id="lnk23" data-source-line="125" data-link-type="crowfoot"><path d="M326.819,760.809 C302.039,780.279 284.58,799.777 271,828.567 C236.28,902.157 231.28,940.637 271,1011.647 C291.47,1048.247 309.366,1067.597 344.916,1090.077" style="stroke:#181818;stroke-width:1;stroke-dasharray:7,7;" fill="none" id="tools-mtm" codeLine="125"/><line x1="327.493" y1="755.193" x2="332.436" y2="761.483" style="stroke:#181818;stroke-width:1;"/><line x1="325.134" y1="757.046" x2="330.077" y2="763.337" style="stroke:#181818;stroke-width:1;"/><line x1="326.819" y1="760.809" x2="333.11" y2="755.867" style="stroke:#181818;stroke-width:1;"/><line x1="353.368" y1="1095.421" x2="363.337" y2="1094.626" style="stroke:#181818;stroke-width:1;"/><line x1="353.368" y1="1095.421" x2="356.923" y2="1104.768" style="stroke:#181818;stroke-width:1;"/><line x1="353.368" y1="1095.421" x2="360.13" y2="1099.697" style="stroke:#181818;stroke-width:1;"/><ellipse cx="348.297" cy="1092.214" rx="4" ry="4" fill="none" style="stroke:#181818;stroke-width:1;"/><text x="272" y="946.174" fill="#000" font-size="13" textLength="126.826">every month × tool</text></g><!--link fp to mai--><g class="link" data-entity-1="ent0014" data-entity-2="ent0016" id="lnk24" data-source-line="126" data-link-type="crowfoot"><path d="M174,1263.477 C174,1288.937 174,1290.627 174,1313.817" style="stroke:#181818;stroke-width:1;stroke-dasharray:7,7;" fill="none" id="fp-mai" codeLine="126"/><line x1="174" y1="1253.477" x2="168" y2="1245.477" style="stroke:#181818;stroke-width:1;"/><line x1="174" y1="1253.477" x2="180" y2="1245.477" style="stroke:#181818;stroke-width:1;"/><line x1="174" y1="1253.477" x2="174" y2="1245.477" style="stroke:#181818;stroke-width:1;"/><ellipse cx="174" cy="1259.477" rx="4" ry="4" fill="none" style="stroke:#181818;stroke-width:1;"/><line x1="178" y1="1317.817" x2="170" y2="1317.817" style="stroke:#181818;stroke-width:1;"/><line x1="178" y1="1314.817" x2="170" y2="1314.817" style="stroke:#181818;stroke-width:1;"/><line x1="174" y1="1313.817" x2="174" y2="1321.817" style="stroke:#181818;stroke-width:1;"/><text x="175" y="1288.094" fill="#000" font-size="13" textLength="175.157">aggregated by month, flair</text></g><!--link rawcom to stgc--><g class="link" data-entity-1="ent0004" data-entity-2="ent0006" id="lnk25" data-source-line="127" data-link-type="association"><path d="M1079.393,544.302 C1031.983,573.882 992.498,598.523 946.938,626.943" style="stroke:#181818;stroke-width:1;stroke-dasharray:7,7;" fill="none" id="rawcom-stgc" codeLine="127"/><line x1="1080.669" y1="538.791" x2="1084.904" y2="545.578" style="stroke:#181818;stroke-width:1;"/><line x1="1078.124" y1="540.379" x2="1082.358" y2="547.166" style="stroke:#181818;stroke-width:1;"/><line x1="1079.393" y1="544.302" x2="1086.18" y2="540.067" style="stroke:#181818;stroke-width:1;"/><line x1="945.661" y1="632.454" x2="941.427" y2="625.666" style="stroke:#181818;stroke-width:1;"/><line x1="948.206" y1="630.866" x2="943.972" y2="624.078" style="stroke:#181818;stroke-width:1;"/><line x1="946.938" y1="626.943" x2="940.15" y2="631.177" style="stroke:#181818;stroke-width:1;"/><text x="1035.63" y="584.704" fill="#000" font-size="13" textLength="166.854">FINAL, clean, hash author</text></g><!--link stg to stgc--><g class="link" data-entity-1="ent0007" data-entity-2="ent0006" id="lnk26" data-source-line="128" data-link-type="crowfoot"><path d="M820.599,544.035 C822.239,574.595 822.718,583.463 824.308,613.173" style="stroke:#181818;stroke-width:1;" fill="none" id="stg-stgc" codeLine="128"/><line x1="816.39" y1="540.255" x2="824.379" y2="539.827" style="stroke:#181818;stroke-width:1;"/><line x1="816.551" y1="543.251" x2="824.539" y2="542.822" style="stroke:#181818;stroke-width:1;"/><line x1="820.599" y1="544.035" x2="820.17" y2="536.047" style="stroke:#181818;stroke-width:1;"/><line x1="824.842" y1="623.158" x2="831.261" y2="630.826" style="stroke:#181818;stroke-width:1;"/><line x1="824.842" y1="623.158" x2="819.279" y2="631.468" style="stroke:#181818;stroke-width:1;"/><line x1="824.842" y1="623.158" x2="825.27" y2="631.147" style="stroke:#181818;stroke-width:1;"/><ellipse cx="824.522" cy="617.167" rx="4" ry="4" fill="none" style="stroke:#181818;stroke-width:1;"/><text x="823.89" y="584.704" fill="#000" font-size="13" textLength="46.439">post_id</text></g><!--link stgc to fctm--><g class="link" data-entity-1="ent0006" data-entity-2="ent0011" id="lnk27" data-source-line="129" data-link-type="crowfoot"><path d="M846.209,779.846 C854.429,816.766 858.717,836.037 866.307,870.117" style="stroke:#181818;stroke-width:1;" fill="none" id="stgc-fctm" codeLine="129"/><line x1="841.435" y1="776.811" x2="849.244" y2="775.072" style="stroke:#181818;stroke-width:1;"/><line x1="842.087" y1="779.739" x2="849.896" y2="778" style="stroke:#181818;stroke-width:1;"/><line x1="846.209" y1="779.846" x2="844.47" y2="772.037" style="stroke:#181818;stroke-width:1;"/><line x1="868.481" y1="879.878" x2="876.077" y2="886.383" style="stroke:#181818;stroke-width:1;"/><line x1="868.481" y1="879.878" x2="864.363" y2="888.991" style="stroke:#181818;stroke-width:1;"/><line x1="868.481" y1="879.878" x2="870.22" y2="887.687" style="stroke:#181818;stroke-width:1;"/><ellipse cx="867.177" cy="874.022" rx="4" ry="4" fill="none" style="stroke:#181818;stroke-width:1;"/><text x="854.91" y="816.634" fill="#000" font-size="13" textLength="80.126">comment_id</text></g><!--link tools to fctm--><g class="link" data-entity-1="ent0009" data-entity-2="ent0011" id="lnk28" data-source-line="130" data-link-type="crowfoot"><path d="M496.474,768.741 C512.494,780.891 523.88,787.527 542,795.567 C622.34,831.227 656.48,793.307 737,828.567 C769.49,842.797 787.452,854.256 812.882,875.786" style="stroke:#181818;stroke-width:1;" fill="none" id="tools-fctm" codeLine="130"/><line x1="490.87" y1="769.511" x2="495.704" y2="763.137" style="stroke:#181818;stroke-width:1;"/><line x1="493.26" y1="771.324" x2="498.095" y2="764.95" style="stroke:#181818;stroke-width:1;"/><line x1="496.474" y1="768.741" x2="490.1" y2="763.907" style="stroke:#181818;stroke-width:1;"/><line x1="820.514" y1="882.248" x2="830.497" y2="882.838" style="stroke:#181818;stroke-width:1;"/><line x1="820.514" y1="882.248" x2="822.743" y2="891.996" style="stroke:#181818;stroke-width:1;"/><line x1="820.514" y1="882.248" x2="826.62" y2="887.417" style="stroke:#181818;stroke-width:1;"/><ellipse cx="815.935" cy="878.371" rx="4" ry="4" fill="none" style="stroke:#181818;stroke-width:1;"/><text x="715.14" y="816.634" fill="#000" font-size="13" textLength="24.616">tool</text></g><!--link fctm to mctm--><g class="link" data-entity-1="ent0011" data-entity-2="ent0012" id="lnk29" data-source-line="131" data-link-type="crowfoot"><path d="M882,1013.797 C882,1046.547 882,1062.657 882,1096.767" style="stroke:#181818;stroke-width:1;stroke-dasharray:7,7;" fill="none" id="fctm-mctm" codeLine="131"/><line x1="882" y1="1003.797" x2="876" y2="995.797" style="stroke:#181818;stroke-width:1;"/><line x1="882" y1="1003.797" x2="888" y2="995.797" style="stroke:#181818;stroke-width:1;"/><line x1="882" y1="1003.797" x2="882" y2="995.797" style="stroke:#181818;stroke-width:1;"/><ellipse cx="882" cy="1009.797" rx="4" ry="4" fill="none" style="stroke:#181818;stroke-width:1;"/><line x1="886" y1="1100.767" x2="878" y2="1100.767" style="stroke:#181818;stroke-width:1;"/><line x1="886" y1="1097.767" x2="878" y2="1097.767" style="stroke:#181818;stroke-width:1;"/><line x1="882" y1="1096.767" x2="882" y2="1104.767" style="stroke:#181818;stroke-width:1;"/><text x="883" y="1054.714" fill="#000" font-size="13" textLength="141.781">aggregated by month</text></g><?plantuml-src jLPTRjms47xNAGRxj1l8Um33C90cBkh2JG8xBmKA45oAgoLCYG99sLva3VGG1NgWtgGdwN2etrqfJlFp96bcoFdcupT3UUMrX1kJAy4rF2Zv2F_--HUyvPv3OJAfOVb6At7_YwcTJ65JA-rXiuTiurU9krTbnIqlmEruPXvLcSEMQoUJdSea26M5RjuBwNScSqbISN7FSmaBAxDCULXQ_hXQmAS4G9PU-JqiAkEyMm1tW3xo0Bm2bS4vt7cBISXoTaOF7mf8mKczzVB9fw1LUS-scYlBWe62U8tPBLnSVBY-lhmaanF6uhgoBfWmHO6vNGfrzM2yP9PxPIZAoi8yo8njzanmBtDZzsGNLk9dncelKWn2L3A4cJAkGjWjLbXkQwtXrxltxrRaPDhm36DvXBPUq-DMLfeBZFzDsbn-j58k-y1L2kzltrxTma-_8mqO_vmypp09BMzYH6bROkSrnKl44eygIm5F69VIwyPa-nS85QRq5ZcpJd6DkLDGZhbwKoZlfVrMyhuRMuoNNE-z4exqxZpFSRkn3ftFMHFTQUIFyk8YTCdb9L698Q8ZiebXbBJZCQXvo6CVHTHuKp6DzUi1h-Y3fUCQIO8TTxiLHQBFX9P4TPf8P3WESeKNrcWLEm3PjV6JQ-RtbHmV4ELl5VWyKp0ruMcrNR5DMSDAPy4tFHhXKcl-tnR4Eb0qpfHKRjkL7DdabQzjBF2qxb4qkRiZeUL3-JLil2mLAJCt5eetHXDNmTTmHRQEhV0rf6eqJ2eUMgF41fQvV8f2bqz2rvbafxulW5Xmwm6MTrStLsy-GcvvE6x401Jc_D6ytOfUbG4e2s_Ab75QeBUOa_XfOPtQn-DoeBcnwjEeWYCXXWAc8OL9NE28sH6sOeYDp5_2ToksTbDi_BGtgfBrE-6zPl4Gn76d1Cger0c-gW6cOPVCeo9AC2_roR52-twPLFwCn2TwQwQ45lNdElj7m9beTUgPbaqP4NG7prKw_1ZpjInDCtvMKrBwd8I-Ha74sqW-nvRJuvnJLZCUsPpKg02iD_eHU_ot6LJ0rMG5_KaDJX5fnxqwF3r4j4xXm5aJBkJ3ORq-7EW2E8V5pzVlNj-4sLdo8jmeMl9oaGJduN1sPZx57ZYFVt8efKKIf-6HDnZxPRWzYd2uYEAU3MMEhjVNeQhSZNr5t8xdEGx9y6SHVb0ZFrtYzHeJDu4uTsmJ0F_y3H469cYtGpwdjslKlqYQFwYU5J6WXUX8wUvhD3dYfetkoYH3Ius84FivUyoT6797NoriCK_3Vm00?></g></svg>