<svg xmlns="http://www.w3.org/2000/svg" xmlns:xlink="http://www.w3.org/1999/xlink" version="1.1" data-diagram-type="SEQUENCE" style="width:539px;height:350px;background:#FFFFFF;" width="539px" height="350px" viewBox="0 0 539 350" zoomAndPan="magnify" preserveAspectRatio="none" contentStyleType="text/css"><?plantuml 1.2026.8?><defs/><g font-family="sans-serif" lengthAdjust="spacing"><g class="title" data-source-line="1"><text x="15" y="27.995" fill="#000" font-size="14" textLength="507.11" font-weight="700">Scenarios — System sequence diagram: UC3 Explore tool trends</text></g><g><title>Analyst . DE Lead</title><rect x="86.781" y="139.891" width="8" height="199.93" fill="#000" fill-opacity="0"/><line x1="90.281" y1="139.891" x2="90.281" y2="339.82" style="stroke:#181818;stroke-width:0.5;stroke-dasharray:5,5;"/></g><g><title>Reddit Data Platform</title><rect x="441.64" y="139.891" width="8" height="199.93" fill="#000" fill-opacity="0"/><line x1="445.14" y1="139.891" x2="445.14" y2="339.82" style="stroke:#181818;stroke-width:0.5;stroke-dasharray:5,5;"/></g><text x="25.502" y="120.292" fill="#000" font-size="14" textLength="123.56">Analyst / DE Lead</text><text x="32.064" y="136.589" fill="#000" font-size="14" textLength="110.435">(via dashboard)</text><ellipse cx="90.281" cy="55.797" rx="8" ry="8" fill="#E2E2F0" style="stroke:#181818;stroke-width:0.5;"/><path d="M90.281,63.797 L90.281,90.797 M77.281,71.797 L103.281,71.797 M90.281,90.797 L77.281,105.797 M90.281,90.797 L103.281,105.797" style="stroke:#181818;stroke-width:0.5;" fill="none"/><rect x="364.586" y="108.594" width="161.109" height="30.297" fill="#E2E2F0" style="stroke:#181818;stroke-width:0.5;" rx="2.5" ry="2.5"/><text x="371.586" y="128.589" fill="#000" font-size="14" textLength="147.109">Reddit Data Platform</text><polygon points="433.14,165.023,443.14,169.023,433.14,173.023,437.14,169.023" fill="#181818" style="stroke:#181818;stroke-width:1;stroke-linejoin:miter;stroke-miterlimit:10;"/><line x1="90.281" y1="169.023" x2="439.14" y2="169.023" style="stroke:#181818;stroke-width:1;"/><text x="97.281" y="163.958" fill="#000" font-size="13" textLength="301.799">queryToolTrend(tools, from_month, to_month)</text><polygon points="101.281,194.156,91.281,198.156,101.281,202.156,97.281,198.156" fill="#181818" style="stroke:#181818;stroke-width:1;stroke-linejoin:miter;stroke-miterlimit:10;"/><line x1="95.281" y1="198.156" x2="444.14" y2="198.156" style="stroke:#181818;stroke-width:1;stroke-dasharray:2,2;"/><text x="107.281" y="193.09" fill="#000" font-size="13" textLength="330.859">monthly posts_mentioning, title_share_pct per tool</text><polygon points="433.14,223.289,443.14,227.289,433.14,231.289,437.14,227.289" fill="#181818" style="stroke:#181818;stroke-width:1;stroke-linejoin:miter;stroke-miterlimit:10;"/><line x1="90.281" y1="227.289" x2="439.14" y2="227.289" style="stroke:#181818;stroke-width:1;"/><text x="97.281" y="222.223" fill="#000" font-size="13" textLength="294.544">compareWindows(first_window, last_window)</text><polygon points="101.281,252.422,91.281,256.422,101.281,260.422,97.281,256.422" fill="#181818" style="stroke:#181818;stroke-width:1;stroke-linejoin:miter;stroke-miterlimit:10;"/><line x1="95.281" y1="256.422" x2="444.14" y2="256.422" style="stroke:#181818;stroke-width:1;stroke-dasharray:2,2;"/><text x="107.281" y="251.356" fill="#000" font-size="13" textLength="217.667">change in title_share_pct per tool</text><path d="M17.415,269.422 L17.415,324.422 L517.415,324.422 L517.415,279.422 L507.415,269.422 L17.415,269.422" style="stroke:#181818;stroke-width:0.5;" fill="#FEFFDD"/><path d="M507.415,269.422 L507.415,279.422 L517.415,279.422 L507.415,269.422" style="stroke:#181818;stroke-width:0.5;" fill="#FEFFDD"/><text x="23.415" y="286.489" fill="#000" font-size="13" textLength="362.515">Reads marts only, as the dashboard user (analyst role).</text><text x="23.415" y="301.622" fill="#000" font-size="13" textLength="360.128">Use title_share_pct, not share_pct, to compare periods:</text><text x="23.415" y="316.754" fill="#000" font-size="13" textLength="479.591">removed posts have no body, and the removal rate rises sharply in 2026.</text><?plantuml-src VP7DRjDG48NtVegZh1B9BLKhiSW22T7kMA3-Y0sIDV4TnrTStt7lJDDcnqFmX3m9OoUX204xZprdpZcVBLfYtBMSgKHH_FZs7NTxDHwW_FZ4kMM4IDj2mneF7wvmyp8cAGmJIR32EMYbNsCUoLUWFGLvZdcBZf9orSV0w4Hi8ozLHQr9mU9zfkGMU8Fh6tna2b_oSXS9WRJV29MmMe0KT5Yh_BB5DewK3OjR3Y4Qhia8dn9P9sMOjtKExHx7usVlZg-mXlSe-tiFV3_bNKxHjKPNP6W6oTRNtkRmjAgEeZFNdqwjCNzBUuoYfit0sQ9aR-d2YL_ZjGitOsiOkSne_XwabS7RyEUOdP8kkrZKckTvgf7er_2F66rFUSk8-J-sMOmXEv-Fklg41hXrreh1UIeaftqzWREUNydZILsvF5aMIRmwT-M3yf-UDTmAluqcftvJd2X1rwuiF7YQS427ddRiEcmaJEuvpFRp3YKKykmbAkjyTtJYtlNoulBjUUK_RZBadm00?></g></svg>